<?xml version="1.0" encoding="UTF-8" standalone="no"?>
<!-- Created with Inkscape (http://www.inkscape.org/) -->

<svg
   version="1.1"
   id="svg2"
   xml:space="preserve"
   width="491.57333"
   height="167.30667"
   viewBox="0 0 491.57333 167.30667"
   sodipodi:docname="Redis-logo-full-color-pantone.svg"
   inkscape:version="1.1.1 (3bf5ae0d25, 2021-09-20)"
   xmlns:inkscape="http://www.inkscape.org/namespaces/inkscape"
   xmlns:sodipodi="http://sodipodi.sourceforge.net/DTD/sodipodi-0.dtd"
   xmlns="http://www.w3.org/2000/svg"
   xmlns:svg="http://www.w3.org/2000/svg"><defs
     id="defs6"><clipPath
       clipPathUnits="userSpaceOnUse"
       id="clipPath18"><path
         d="M 0,0 H 3686.8 V 1254.75 H 0 Z"
         id="path16" /></clipPath><clipPath
       clipPathUnits="userSpaceOnUse"
       id="clipPath24"><path
         d="M 0,1254.75 H 1464.16 V -0.0117188 H 0 Z"
         id="path22" /></clipPath></defs><sodipodi:namedview
     id="namedview4"
     pagecolor="#ffffff"
     bordercolor="#666666"
     borderopacity="1.0"
     inkscape:pageshadow="2"
     inkscape:pageopacity="0.0"
     inkscape:pagecheckerboard="0"
     showgrid="false"
     inkscape:zoom="2.2580558"
     inkscape:cx="245.56524"
     inkscape:cy="83.700324"
     inkscape:window-width="1920"
     inkscape:window-height="1010"
     inkscape:window-x="-6"
     inkscape:window-y="-6"
     inkscape:window-maximized="1"
     inkscape:current-layer="g8" /><g
     id="g8"
     inkscape:groupmode="layer"
     inkscape:label="ink_ext_XXXXXX"
     transform="matrix(1.3333333,0,0,-1.3333333,0,167.30667)"><g
       id="g10"
       transform="scale(0.1)"><g
         id="g12"><g
           id="g14"
           clip-path="url(#clipPath18)"><g
             id="g20"
             clip-path="url(#clipPath24)"><path
               d="M 1406.63,287.316 C 1328.56,246.531 923.758,80.0391 837.008,34.3906 750.266,-11.2695 703.086,-10.0508 634.91,22.5195 566.73,55.0898 136.965,229.789 59.1992,266.926 20.3906,285.34 0,301.016 0,315.773 v 148.079 c 0,0 560.797,121.746 651.344,154.468 90.551,32.719 121.75,33.633 198.906,5.477 77.16,-28.152 537.67,-111.402 613.76,-139.246 V 338.758 c 0,-15.219 -17.5,-30.438 -57.38,-51.289 v -0.153"
               style="fill:#a02228;fill-opacity:1;fill-rule:nonzero;stroke:none"
               id="path26" /><path
               d="M 1406.63,435.242 C 1328.56,394.609 923.758,228.121 837.008,183.23 750.266,138.332 703.086,138.789 634.91,171.199 566.73,203.621 136.965,377.871 59.1992,414.848 c -77.7656,36.98 -79.2851,62.699 -3.0469,92.531 76.2457,29.828 504.6447,197.836 595.1917,230.402 90.551,32.571 121.75,33.633 198.906,5.328 77.16,-28.304 479.38,-188.402 555.47,-216.254 76.09,-27.847 79.13,-50.832 0.91,-91.308 v -0.305"
               style="fill:#e62e2c;fill-opacity:1;fill-rule:nonzero;stroke:none"
               id="path28" /><path
               d="M 1406.63,528.527 C 1328.56,487.898 923.758,321.41 837.008,276.512 750.266,231.621 703.086,232.07 634.91,264.492 566.73,296.906 136.965,471.004 59.1992,508.137 20.3906,526.703 0,542.379 0,557.141 v 147.922 c 0,0 560.797,121.746 651.344,154.617 90.551,32.871 121.75,33.633 198.906,5.328 77.16,-28.305 537.67,-111.246 613.76,-139.098 V 579.969 c 0,-15.219 -17.5,-30.438 -57.38,-51.442"
               style="fill:#a02228;fill-opacity:1;fill-rule:nonzero;stroke:none"
               id="path30" /><path
               d="M 1406.63,676.605 C 1328.56,635.82 923.758,469.48 837.008,424.59 750.266,379.695 703.086,380 634.91,412.566 566.73,445.137 136.965,619.082 59.1992,656.211 c -77.7656,37.133 -79.2851,62.547 -3.0469,92.375 76.2457,29.832 504.6447,197.84 595.1917,230.406 90.551,32.568 121.75,33.638 198.906,5.481 77.16,-28.157 479.38,-189.168 555.47,-216.25 76.09,-27.09 79.13,-50.832 0.91,-91.317 v -0.301"
               style="fill:#e62e2c;fill-opacity:1;fill-rule:nonzero;stroke:none"
               id="path32" /><path
               d="M 1406.63,778.871 C 1328.56,738.086 923.758,571.594 837.008,526.703 750.266,481.809 703.086,482.266 634.91,514.832 566.73,547.402 136.965,721.348 59.1992,758.48 20.3906,776.895 0,792.566 0,807.332 v 148.07 c 0,0 560.797,121.748 651.344,154.468 90.551,32.72 121.75,33.63 198.906,5.48 77.16,-28.15 537.67,-111.4 613.76,-139.248 V 830.16 c 0,-15.219 -17.5,-30.441 -57.38,-51.289"
               style="fill:#a02228;fill-opacity:1;fill-rule:nonzero;stroke:none"
               id="path34" /><path
               d="M 1406.63,926.797 C 1328.56,886.621 923.758,719.219 837.008,674.777 750.266,630.34 703.086,630.34 634.91,662.758 566.73,695.172 136.965,869.422 59.1992,906.398 c -77.7656,36.985 -79.2851,62.704 -3.0469,92.532 76.2457,29.83 504.6447,197.84 595.1917,230.41 90.551,32.56 121.75,33.63 198.906,5.32 77.16,-28.3 479.38,-188.4 555.47,-216.25 76.09,-27.851 79.13,-50.828 0.91,-91.312 v -0.301"
               style="fill:#e62e2c;fill-opacity:1;fill-rule:nonzero;stroke:none"
               id="path36" /></g></g></g><path
         d="m 754.98,1137.11 96.637,31.66 -26.172,-62.55 98.313,-36.83 -126.774,-13.24 -28.457,-68.33 -45.804,76.25 -146.555,13.23 109.418,39.42 -32.871,60.57 102.265,-40.18 v 0 0"
         style="fill:#ffffff;fill-opacity:1;fill-rule:nonzero;stroke:none"
         id="path38" /><path
         d="M 761.07,737.781 524.273,836.094 863.488,888.137 761.07,737.781 v 0 0"
         style="fill:#ffffff;fill-opacity:1;fill-rule:nonzero;stroke:none"
         id="path40" /><path
         d="m 432.809,1031.35 c 100.136,0 181.25,-31.506 181.25,-70.315 0,-38.805 -81.414,-70.308 -181.25,-70.308 -99.829,0 -181.403,31.503 -181.403,70.308 0,38.809 81.266,70.315 181.403,70.315"
         style="fill:#ffffff;fill-opacity:1;fill-rule:nonzero;stroke:none"
         id="path42" /><path
         d="m 1073.81,1050.67 200.73,-79.283 -200.58,-79.289 -0.15,158.572 v 0 0"
         style="fill:#751d2c;fill-opacity:1;fill-rule:nonzero;stroke:none"
         id="path44" /><path
         d="m 1073.81,1050.67 0.15,-158.572 -21.76,-8.524 -200.583,79.285 222.193,87.811 v 0 0"
         style="fill:#a02228;fill-opacity:1;fill-rule:nonzero;stroke:none"
         id="path46" /><path
         d="m 1930.45,840.73 c 17.24,18.93 38.51,33.754 62.24,43.372 23.12,9.929 47.9,15.402 73.05,16.132 18.05,1.586 35.96,-4.238 49.61,-16.132 10.31,-9.84 15.87,-23.661 15.22,-37.891 0.15,-14.152 -5.33,-27.781 -15.22,-37.898 -9.63,-10.723 -23.49,-16.672 -37.89,-16.282 -62.4,-5.48 -148.99,-67.722 -148.99,-152.183 V 448.094 c -0.8,-29.586 -24.6,-53.379 -54.18,-54.172 -14.74,-0.504 -28.93,5.637 -38.65,16.734 -10.27,9.953 -16.13,23.598 -16.28,37.899 v 400.238 c 0.15,14.301 6.01,27.945 16.28,37.895 11.87,8.515 26.03,13.238 40.64,13.546 14.38,0.45 28.24,-5.449 37.89,-16.132 10.68,-9.661 16.63,-23.493 16.28,-37.891 v -5.481"
         style="fill:#423f3f;fill-opacity:1;fill-rule:nonzero;stroke:none"
         id="path48" /><path
         d="m 2346.06,808.313 c -33.66,-0.547 -66.03,-13.059 -91.31,-35.305 -21.58,-18.192 -36.73,-42.844 -43.22,-70.309 h 284.28 c -7.97,27.496 -25.24,51.375 -48.85,67.567 -28.51,22.964 -63.57,36.289 -100.14,38.047 m 240.31,-143.508 c 0.04,-13.047 -4.78,-25.645 -13.55,-35.305 -10.35,-9.672 -23.76,-15.434 -37.9,-16.285 H 2216.1 c 3.05,-25.402 15.41,-48.777 34.7,-65.59 24.74,-26.59 58.59,-42.891 94.8,-45.66 37.05,-6.27 75.06,2.496 105.62,24.351 10.73,10.793 25.43,16.688 40.63,16.286 13.11,0.621 25.86,-4.297 35.16,-13.547 17.95,-16.492 19.12,-44.414 2.63,-62.356 -0.84,-0.91 -1.72,-1.789 -2.63,-2.625 -47.68,-44.179 -110.98,-67.562 -175.93,-64.984 -66.97,-1.492 -131.27,26.293 -176.07,76.094 -45.86,48.429 -71.93,112.281 -73.05,178.968 -1.35,67.125 25.09,131.832 73.05,178.817 43.75,47.699 105.88,74.304 170.59,73.047 62.93,2.433 123.88,-22.223 167.4,-67.719 45.88,-43.996 73.12,-103.918 76.1,-167.406 v -5.325 l -1.97,-0.761"
         style="fill:#423f3f;fill-opacity:1;fill-rule:nonzero;stroke:none"
         id="path50" /><path
         d="m 2853.14,507.754 c 36.47,-0.66 71.27,15.234 94.66,43.215 54.14,55.84 54.14,144.586 0,200.426 -24.1,27.066 -58.43,42.796 -94.66,43.375 -36.67,1.269 -71.8,-14.801 -94.81,-43.375 -54.14,-55.84 -54.14,-144.586 0,-200.426 23.8,-27.524 58.41,-43.305 94.81,-43.215 m 243.49,-54.18 c -0.15,-14.297 -6.02,-27.941 -16.28,-37.89 -9.91,-10.329 -23.59,-16.204 -37.89,-16.286 -25.63,1.004 -47.59,18.594 -54.18,43.368 -40.21,-28.813 -88.58,-44.012 -138.03,-43.368 -65.42,-0.796 -128.22,25.668 -173.34,73.047 -47.25,47.27 -72.76,112.02 -70.46,178.813 -0.5,66.426 24.76,130.461 70.46,178.668 44.79,48.222 107.53,75.765 173.34,76.09 48.6,0.629 96.1,-14.594 135.28,-43.371 v 189.315 c -0.39,14.41 5.57,28.26 16.29,37.89 9.95,10.27 23.6,16.13 37.89,16.29 14.42,0.39 28.27,-5.57 37.9,-16.29 10.27,-9.95 16.13,-23.59 16.28,-37.89 V 453.574 h 2.74"
         style="fill:#423f3f;fill-opacity:1;fill-rule:nonzero;stroke:none"
         id="path52" /><path
         d="m 3165.42,886.688 c 9.91,10.328 23.58,16.203 37.9,16.285 14.41,0.429 28.28,-5.528 37.89,-16.285 10.49,-10.805 16.09,-25.434 15.52,-40.477 v -395.68 c 0.91,-14.504 -5.13,-28.574 -16.28,-37.894 -9.96,-10.27 -23.6,-16.129 -37.89,-16.285 -14.42,-0.391 -28.27,5.566 -37.91,16.285 -10.32,9.91 -16.19,23.582 -16.27,37.894 v 395.68 c -0.45,15.168 5.44,29.844 16.27,40.477 m 92.08,165.272 v -21.76 c 0.51,-15.47 -5.51,-30.434 -16.59,-41.247 -9.95,-9.98 -23.86,-14.953 -37.89,-13.539 -14.39,-0.449 -28.25,5.449 -37.9,16.129 -10.84,10.687 -16.74,25.417 -16.28,40.637 v 19.78 c 0.08,14.31 5.96,27.98 16.28,37.89 9.95,10.27 23.6,16.13 37.9,16.29 14.4,0.35 28.23,-5.6 37.89,-16.29 10.83,-9.57 16.91,-23.44 16.59,-37.89"
         style="fill:#423f3f;fill-opacity:1;fill-rule:nonzero;stroke:none"
         id="path54" /><path
         d="m 3640.84,848.793 c 11.05,-7.676 18.78,-19.262 21.61,-32.414 2.22,-13.774 0.38,-27.899 -5.32,-40.633 -7.78,-11.027 -19.4,-18.734 -32.57,-21.613 -14.08,-2.617 -28.63,0.269 -40.64,8.066 -37.89,24.352 -67.57,37.899 -92.07,37.899 -21.48,1.254 -42.66,-5.465 -59.5,-18.875 -10.81,-8.215 -16.29,-13.543 -16.29,-19.024 -0.71,-4.695 0.26,-9.488 2.75,-13.543 3.06,-3.34 6.72,-6.074 10.8,-8.062 22.08,-13.922 47.19,-22.274 73.2,-24.352 v 0 c 33.7,-5.656 66.47,-15.898 97.4,-30.437 27.31,-11.348 50.13,-31.344 64.98,-56.914 13.27,-21.125 20.72,-45.375 21.61,-70.309 -0.24,-46.707 -23.54,-90.277 -62.24,-116.422 -37.87,-27.078 -83.42,-41.316 -129.96,-40.633 -62.25,0 -121.75,24.352 -178.68,70.309 -10.37,9.105 -17.11,21.641 -19.02,35.305 -2.62,28.625 18.47,53.957 47.09,56.578 13.25,1.211 26.47,-2.696 36.92,-10.922 29.85,-28.461 69.7,-44.043 110.94,-43.371 24.01,-0.824 47.67,5.82 67.73,19.023 10.8,10.805 19.02,18.867 19.02,27.086 0,8.219 0,10.805 -2.74,13.547 0,2.738 -5.48,8.066 -13.55,10.805 -24.72,15.254 -52.43,25.008 -81.26,28.609 v 0 c -32.23,4.738 -63.38,15.039 -92.07,30.438 -26.3,12.847 -48.72,32.433 -64.99,56.761 -10.65,19.012 -16.22,40.457 -16.12,62.246 -0.06,44.668 22.28,86.387 59.5,111.094 36.68,24.988 80.1,38.203 124.48,37.891 45.66,-2.738 94.82,-21.606 148.99,-56.914"
         style="fill:#423f3f;fill-opacity:1;fill-rule:nonzero;stroke:none"
         id="path56" /></g></g></svg>
