<?xml version="1.0" encoding="UTF-8" standalone="no"?>
<svg
   id="Layer_1"
   data-name="Layer 1"
   viewBox="0 0 500 85.557968"
   version="1.1"
   sodipodi:docname="Sourcegraph.svg"
   width="500"
   height="85.557968"
   inkscape:export-filename="C:\Users\IriVio\Downloads\kv6rls57dmif9sd8u-MongoDB Logos (1)\SVG\MongoDB@2x .png"
   inkscape:export-xdpi="96"
   inkscape:export-ydpi="96"
   inkscape:version="1.1.1 (3bf5ae0d25, 2021-09-20)"
   xmlns:inkscape="http://www.inkscape.org/namespaces/inkscape"
   xmlns:sodipodi="http://sodipodi.sourceforge.net/DTD/sodipodi-0.dtd"
   xmlns="http://www.w3.org/2000/svg"
   xmlns:svg="http://www.w3.org/2000/svg">
  <sodipodi:namedview
     id="namedview91"
     pagecolor="#ffffff"
     bordercolor="#666666"
     borderopacity="1.0"
     inkscape:pageshadow="2"
     inkscape:pageopacity="0.0"
     inkscape:pagecheckerboard="0"
     showgrid="false"
     width="250px"
     inkscape:zoom="3.7182493"
     inkscape:cx="140.79207"
     inkscape:cy="54.326642"
     inkscape:window-width="1920"
     inkscape:window-height="1010"
     inkscape:window-x="-6"
     inkscape:window-y="-6"
     inkscape:window-maximized="1"
     inkscape:current-layer="Layer_1"
     fit-margin-top="0"
     fit-margin-left="0"
     fit-margin-right="0"
     fit-margin-bottom="0" />
  <defs
     id="defs70">
    <style
       id="style68">.cls-1{fill:#06232e;}</style>
    <clipPath
       clipPathUnits="userSpaceOnUse"
       id="clipPath450">
      <path
         d="M 0,55.5 H 312.8 V 0 H 0 Z"
         id="path448" />
    </clipPath>
  </defs>
  <g
     id="g446"
     clip-path="url(#clipPath450)"
     transform="matrix(1.6527656,0,0,-1.6527656,-8.2254253,88.230038)">
    <g
       id="g452"
       transform="translate(34.8,1.7)">
      <path
         d="m 0,0 c -2.8,-0.5 -5.5,1.3 -6,4.1 l -7.6,41.5 c -0.5,2.8 1.3,5.5 4.1,6 2.8,0.5 5.5,-1.3 6,-4.1 L 4.1,6 C 4.6,3.2 2.7,0.5 0,0"
         style="fill:#ff5543;fill-opacity:1;fill-rule:nonzero;stroke:none"
         id="path454" />
    </g>
    <g
       id="g456"
       transform="translate(14.9,8.8)">
      <path
         d="m 0,0 c -1.8,-0.3 -3.6,0.3 -4.9,1.7 -1.8,2.2 -1.6,5.4 0.6,7.2 l 32.1,27.3 c 2.2,1.8 5.4,1.6 7.2,-0.6 1.8,-2.2 1.6,-5.4 -0.6,-7.2 L 2.4,1.1 C 1.7,0.5 0.8,0.1 0,0"
         style="fill:#a112ff;fill-opacity:1;fill-rule:nonzero;stroke:none"
         id="path458" />
    </g>
    <g
       id="g460"
       transform="translate(50.8,15.4)">
      <path
         d="m 0,0 c -0.9,-0.2 -1.8,-0.1 -2.6,0.2 l -39.8,14.1 c -2.7,1 -4.1,3.9 -3.1,6.6 1,2.7 3.9,4.1 6.6,3.1 L 0.8,9.9 C 3.5,8.9 4.9,6 3.9,3.3 3.3,1.5 1.7,0.3 0,0"
         style="fill:#00cbec;fill-opacity:1;fill-rule:nonzero;stroke:none"
         id="path462" />
    </g>
    <g
       id="g464"
       transform="translate(84,20.4)">
      <path
         d="m 0,0 c 0,1 -0.4,1.8 -1.1,2.4 -0.7,0.6 -1.6,1.2 -2.7,1.7 -1.1,0.5 -2.3,1 -3.6,1.6 -1.3,0.5 -2.5,1.2 -3.6,2 -1.1,0.8 -2,1.8 -2.7,3 -0.7,1.2 -1.1,2.7 -1.1,4.5 0,1.6 0.3,3 0.8,4.1 0.5,1.2 1.3,2.1 2.3,2.9 1,0.8 2.1,1.3 3.5,1.7 1.3,0.4 2.8,0.6 4.5,0.6 1.9,0 3.7,-0.2 5.3,-0.5 1.6,-0.3 3.1,-0.8 4.1,-1.4 l -2,-5.3 C 3,17.7 2,18.1 0.6,18.4 c -1.4,0.4 -2.8,0.5 -4.4,0.5 -1.5,0 -2.6,-0.3 -3.4,-0.9 -0.8,-0.6 -1.2,-1.4 -1.2,-2.4 0,-0.9 0.4,-1.7 1.1,-2.3 0.7,-0.6 1.6,-1.2 2.7,-1.7 C -3.5,11.1 -2.3,10.5 -1,10 0.3,9.4 1.5,8.8 2.6,8 3.7,7.2 4.6,6.2 5.3,5.1 6,3.9 6.4,2.5 6.4,0.8 6.4,-0.9 6.1,-2.4 5.5,-3.7 4.9,-5 4.1,-6 3.1,-6.8 c -1,-0.8 -2.3,-1.5 -3.8,-1.9 -1.5,-0.4 -3.1,-0.6 -4.9,-0.6 -2.3,0 -4.4,0.2 -6.1,0.7 -1.8,0.4 -3.1,0.9 -3.9,1.3 l 2,5.4 c 0.3,-0.2 0.8,-0.4 1.3,-0.6 0.5,-0.2 1.2,-0.4 1.8,-0.6 0.7,-0.2 1.4,-0.3 2.2,-0.5 0.8,-0.1 1.5,-0.2 2.3,-0.2 1.9,0 3.3,0.3 4.3,1 C -0.5,-2.2 0,-1.3 0,0"
         style="fill:#000000;fill-opacity:1;fill-rule:nonzero;stroke:none"
         id="path466" />
    </g>
    <g
       id="g468"
       transform="translate(99.3,23.3)">
      <path
         d="M 0,0 C 0,-1 0.1,-2 0.3,-2.8 0.5,-3.7 0.8,-4.4 1.1,-5.1 1.5,-5.8 2,-6.3 2.6,-6.6 3.2,-7 3.9,-7.1 4.8,-7.1 c 1.6,0 2.8,0.6 3.5,1.7 0.8,1.1 1.2,3 1.2,5.4 0,2.1 -0.4,3.9 -1.1,5.2 -0.7,1.3 -1.9,2 -3.6,2 C 3.3,7.2 2.1,6.6 1.3,5.5 0.4,4.4 0,2.6 0,0 m -6.2,0 c 0,3.9 1,7 2.9,9.1 1.9,2.1 4.6,3.2 8.1,3.2 1.9,0 3.5,-0.3 4.8,-0.9 C 11,10.8 12.1,10 13,8.9 13.9,7.8 14.6,6.5 15,5 c 0.4,-1.5 0.7,-3.2 0.7,-5 0,-3.9 -1,-7 -2.9,-9.1 -1.9,-2.1 -4.6,-3.2 -8.1,-3.2 -1.9,0 -3.5,0.3 -4.8,0.9 -1.4,0.6 -2.5,1.4 -3.4,2.5 -0.9,1.1 -1.6,2.4 -2,3.9 -0.5,1.5 -0.7,3.2 -0.7,5"
         style="fill:#000000;fill-opacity:1;fill-rule:nonzero;stroke:none"
         id="path470" />
    </g>
    <g
       id="g472"
       transform="translate(124.1,34.9)">
      <path
         d="m 0,0 v -13.2 c 0,-1.9 0.2,-3.3 0.7,-4.1 0.4,-0.8 1.3,-1.3 2.6,-1.3 1.1,0 2.1,0.3 2.9,1 0.8,0.7 1.3,1.5 1.7,2.5 v 15 h 6 v -16.2 c 0,-1.3 0.1,-2.5 0.2,-3.7 0.1,-1.2 0.3,-2.3 0.6,-3.3 H 10.1 L 9,-19.9 H 8.8 C 8.1,-21.1 7.1,-22.1 5.8,-22.8 4.5,-23.6 3,-24 1.3,-24 c -1.2,0 -2.2,0.2 -3.2,0.5 -0.9,0.3 -1.7,0.8 -2.3,1.5 -0.6,0.7 -1.1,1.7 -1.4,2.9 -0.3,1.2 -0.5,2.8 -0.5,4.7 V 0 Z"
         style="fill:#000000;fill-opacity:1;fill-rule:nonzero;stroke:none"
         id="path474" />
    </g>
    <g
       id="g476"
       transform="translate(155.5,29.3)">
      <path
         d="m 0,0 c -1,0.3 -1.8,0.5 -2.6,0.5 -1.1,0 -2,-0.3 -2.7,-0.9 C -6,-1 -6.5,-1.7 -6.8,-2.6 v -15 h -6 V 5.6 h 4.7 l 0.7,-3.1 h 0.2 c 0.5,1.1 1.2,2 2.1,2.7 0.9,0.7 2,0.9 3.2,0.9 0.8,0 2.5,-0.4 3.4,-0.8 z"
         style="fill:#000000;fill-opacity:1;fill-rule:nonzero;stroke:none"
         id="path478" />
    </g>
    <g
       id="g480"
       transform="translate(175.1,13.1)">
      <path
         d="m 0,0 c -0.9,-0.7 -2.1,-1.2 -3.4,-1.6 -1.3,-0.4 -2.7,-0.5 -4.1,-0.5 -1.9,0 -3.4,0.3 -4.7,0.9 -1.3,0.6 -2.3,1.4 -3.1,2.5 -0.8,1.1 -1.4,2.4 -1.7,3.9 -0.4,1.5 -0.5,3.2 -0.5,5 0,3.9 0.9,7 2.7,9.1 1.8,2.1 4.3,3.2 7.7,3.2 1.7,0 3.1,-0.1 4.1,-0.4 1,-0.3 2,-0.6 2.8,-1.1 l -1.4,-4.9 c -0.7,0.3 -1.4,0.6 -2.1,0.8 -0.7,0.2 -1.5,0.3 -2.4,0.3 -1.7,0 -2.9,-0.6 -3.8,-1.7 -0.9,-1.1 -1.3,-2.9 -1.3,-5.3 0,-1 0.1,-1.9 0.3,-2.7 0.2,-0.8 0.5,-1.6 1,-2.2 0.4,-0.6 1,-1.1 1.7,-1.5 0.7,-0.4 1.5,-0.5 2.4,-0.5 1,0 1.9,0.1 2.6,0.4 0.7,0.3 1.3,0.6 1.9,1 z"
         style="fill:#000000;fill-opacity:1;fill-rule:nonzero;stroke:none"
         id="path482" />
    </g>
    <g
       id="g484"
       transform="translate(187.7,30.8)">
      <path
         d="m 0,0 c -1.6,0 -2.8,-0.5 -3.5,-1.4 -0.8,-0.9 -1.2,-2.2 -1.4,-3.8 h 8.6 c 0.1,1.7 -0.1,3 -0.8,3.9 C 2.4,-0.5 1.4,0 0,0 m 8.7,-17.1 c -0.9,-0.7 -2.2,-1.4 -3.8,-1.9 -1.6,-0.5 -3.3,-0.8 -5.1,-0.8 -3.8,0 -6.5,1.1 -8.2,3.3 -1.7,2.2 -2.6,5.2 -2.6,9 0,4.1 1,7.2 2.9,9.2 1.9,2 4.7,3.1 8.2,3.1 C 1.3,4.8 2.4,4.6 3.5,4.3 4.6,4 5.6,3.5 6.5,2.8 7.4,2.1 8.1,1.1 8.6,-0.1 9.1,-1.3 9.4,-2.8 9.4,-4.6 9.4,-5.3 9.4,-5.9 9.3,-6.7 9.2,-7.4 9.1,-8.2 9,-9 H -5 c 0.1,-2 0.6,-3.4 1.5,-4.4 0.9,-1 2.4,-1.5 4.4,-1.5 1.3,0 2.4,0.2 3.4,0.6 1,0.4 1.8,0.8 2.3,1.2 z"
         style="fill:#000000;fill-opacity:1;fill-rule:nonzero;stroke:none"
         id="path486" />
    </g>
    <g
       id="g488"
       transform="translate(210.4,16.2)">
      <path
         d="M 0,0 C 1.2,0 2.1,0.3 2.7,0.8 3.3,1.3 3.8,2.1 4.2,3.2 V 13.6 C 3.2,14 2,14.2 0.6,14.2 -1,14.2 -2.2,13.6 -3,12.5 -3.9,11.3 -4.3,9.5 -4.3,6.9 -4.3,4.6 -3.9,2.9 -3.2,1.7 -2.5,0.5 -1.4,0 0,0 m 10.2,-4.5 c 0,-3.4 -0.9,-5.9 -2.7,-7.5 -1.8,-1.6 -4.4,-2.4 -7.7,-2.4 -2.2,0 -4,0.2 -5.3,0.5 -1.3,0.3 -2.3,0.6 -2.9,1 l 1.3,4.8 c 0.7,-0.3 1.5,-0.6 2.5,-0.8 1,-0.2 2.1,-0.4 3.5,-0.4 2.1,0 3.5,0.5 4.3,1.4 0.8,0.9 1.1,2.2 1.1,3.8 v 1.4 H 4.1 c -1.1,-1.5 -3,-2.2 -5.8,-2.2 -3,0 -5.2,0.9 -6.7,2.8 -1.5,1.9 -2.2,4.8 -2.2,8.7 0,4.2 1,7.3 3,9.4 2,2.1 4.9,3.2 8.6,3.2 2,0 3.8,-0.1 5.3,-0.4 1.5,-0.3 2.8,-0.6 3.8,-1 V -4.5 Z"
         style="fill:#000000;fill-opacity:1;fill-rule:nonzero;stroke:none"
         id="path490" />
    </g>
    <g
       id="g492"
       transform="translate(238.1,29.3)">
      <path
         d="m 0,0 c -1,0.3 -1.8,0.5 -2.6,0.5 -1.1,0 -2,-0.3 -2.7,-0.9 C -6,-1 -6.5,-1.7 -6.8,-2.6 v -15 h -6 V 5.6 h 4.7 l 0.7,-3.1 h 0.2 c 0.5,1.1 1.2,2 2.1,2.7 0.9,0.7 2,0.9 3.2,0.9 0.8,0 1.7,-0.2 2.7,-0.5 z"
         style="fill:#000000;fill-opacity:1;fill-rule:nonzero;stroke:none"
         id="path494" />
    </g>
    <g
       id="g496"
       transform="translate(248.1,16.3)">
      <path
         d="m 0,0 c 1.2,0 2.2,0.3 2.9,0.8 0.7,0.5 1.2,1.1 1.6,1.7 v 3 C 3.5,5.6 2.6,5.6 1.7,5.5 0.8,5.4 0,5.3 -0.6,5.1 -1.2,4.9 -1.8,4.6 -2.2,4.2 -2.6,3.8 -2.8,3.3 -2.8,2.7 -2.8,1.8 -2.5,1.2 -2,0.7 -1.6,0.2 -0.9,0 0,0 m -7.1,17.5 c 1.2,0.6 2.1,0.8 3.8,1.1 1.7,0.3 3.5,0.5 5.3,0.5 1.6,0 3,-0.2 4,-0.6 1,-0.4 1.9,-0.9 2.6,-1.7 0.6,-0.7 1.1,-1.6 1.3,-2.6 0.3,-1 0.4,-2.1 0.4,-3.3 0,-1.4 0,-2.7 -0.1,-4.1 C 10.1,5.4 10.1,4.1 10,2.7 c 0,-1.3 0,-2.6 0.1,-3.9 0.1,-1.3 0.3,-2.4 0.7,-3.6 H 5.9 l -1,3.2 c -0.6,-1 -1.5,-1.8 -2.6,-2.5 -1.1,-0.7 -2.5,-1 -4.3,-1 -1.1,0 -2.1,0.2 -2.9,0.5 -0.9,0.3 -1.6,0.8 -2.2,1.4 -0.6,0.6 -1.1,1.3 -1.4,2.1 -0.3,0.8 -0.5,1.7 -0.5,2.8 0,1.4 0.3,2.6 1,3.6 0.7,1 1.5,1.8 2.7,2.4 1.2,0.6 2.6,1 4.3,1.3 1.7,0.3 3.5,0.3 5.6,0.2 0.2,1.7 0.1,3 -0.4,3.7 C 3.7,13.7 2.7,14 1.1,14 -0.1,14 -1.4,13.9 -2.7,13.6 -4,13.3 -4.6,13.2 -5.4,12.8 Z"
         style="fill:#000000;fill-opacity:1;fill-rule:nonzero;stroke:none"
         id="path498" />
    </g>
    <g
       id="g500"
       transform="translate(273.4,30.5)">
      <path
         d="M 0,0 C -1.2,0 -2.1,-0.3 -2.8,-0.9 -3.5,-1.5 -4,-2.4 -4.4,-3.6 v -9.7 c 0.4,-0.3 0.9,-0.6 1.4,-0.8 0.5,-0.2 1.2,-0.3 2,-0.3 1.7,0 3,0.6 3.9,1.8 0.9,1.2 1.3,3.2 1.3,6.1 0,2 -0.3,3.6 -1,4.7 C 2.6,-0.6 1.5,0 0,0 m -10.3,4.4 h 4.4 L -5.2,1.6 H -5 c 0.8,1.2 1.8,2 2.9,2.6 C -1,4.8 0.3,5 1.9,5 4.8,5 7,4.1 8.5,2.2 c 1.5,-1.9 2.2,-4.8 2.2,-8.9 0,-2 -0.2,-3.8 -0.7,-5.4 -0.5,-1.6 -1.2,-3 -2.1,-4.1 -0.9,-1.1 -2,-2 -3.3,-2.6 -1.3,-0.6 -2.8,-0.9 -4.5,-0.9 -1,0 -1.8,0.1 -2.4,0.2 -0.6,0.1 -1.2,0.4 -1.9,0.7 v -9.5 h -6 V 4.4 Z"
         style="fill:#000000;fill-opacity:1;fill-rule:nonzero;stroke:none"
         id="path502" />
    </g>
    <g
       id="g504"
       transform="translate(301.6,11.7)">
      <path
         d="m 0,0 v 13.2 c 0,1.9 -0.3,3.3 -0.8,4.1 -0.5,0.8 -1.5,1.3 -2.9,1.3 -1,0 -2,-0.3 -2.8,-1 C -7.4,16.9 -7.9,16 -8.2,14.9 V 0.1 h -6 v 32.4 h 6 V 20.6 H -8 c 0.7,1 1.7,1.8 2.7,2.4 1.1,0.6 2.5,0.9 4.1,0.9 C 0,23.9 1,23.7 1.9,23.4 2.8,23.1 3.6,22.6 4.2,21.9 4.8,21.2 5.3,20.2 5.5,19 5.7,17.8 5.9,16.3 5.9,14.5 V 0 Z"
         style="fill:#000000;fill-opacity:1;fill-rule:nonzero;stroke:none"
         id="path506" />
    </g>
  </g>
</svg>
