<?xml version="1.0" encoding="UTF-8" standalone="no"?>
<!-- Created with Inkscape (http://www.inkscape.org/) -->

<svg
   version="1.1"
   id="svg6"
   xml:space="preserve"
   width="499.99997"
   height="137.883"
   viewBox="0 0 499.99997 137.883"
   sodipodi:docname="Rockset.svg"
   inkscape:version="1.1.1 (3bf5ae0d25, 2021-09-20)"
   xmlns:inkscape="http://www.inkscape.org/namespaces/inkscape"
   xmlns:sodipodi="http://sodipodi.sourceforge.net/DTD/sodipodi-0.dtd"
   xmlns="http://www.w3.org/2000/svg"
   xmlns:svg="http://www.w3.org/2000/svg"><defs
     id="defs10" /><sodipodi:namedview
     id="namedview8"
     pagecolor="#ffffff"
     bordercolor="#666666"
     borderopacity="1.0"
     inkscape:pageshadow="2"
     inkscape:pageopacity="0.0"
     inkscape:pagecheckerboard="0"
     showgrid="false"
     inkscape:zoom="0.95034247"
     inkscape:cx="120.48288"
     inkscape:cy="33.672072"
     inkscape:window-width="1920"
     inkscape:window-height="1010"
     inkscape:window-x="-6"
     inkscape:window-y="-6"
     inkscape:window-maximized="1"
     inkscape:current-layer="g12"
     fit-margin-top="0"
     fit-margin-left="0"
     fit-margin-right="0"
     fit-margin-bottom="0" /><g
     id="g12"
     inkscape:groupmode="layer"
     inkscape:label="ink_ext_XXXXXX"
     transform="matrix(1.3333333,0,0,-1.3333333,-462.99999,270.33331)"><g
       id="g14"
       transform="matrix(0.05222841,0,0,0.05222841,306.51184,58.077294)"
       inkscape:export-filename="C:\Users\IriVio\Pictures\Logo\_source\Rockset@2x.png"
       inkscape:export-xdpi="96"
       inkscape:export-ydpi="96"><path
         d="m 2055.51,1952.46 c 0,179.71 -123.2,311.6 -324.65,311.6 h -452.17 v -966.67 h 205.8 v 346.38 h 150.72 l 189.86,-346.38 h 236.23 l -217.38,368.12 c 104.33,24.64 211.59,115.94 211.59,286.95"
         style="fill:#5d2590;fill-opacity:1;fill-rule:nonzero;stroke:none"
         id="path16" /><path
         d="m 2633.91,1462.61 c -178.27,0 -292.76,137.68 -292.76,317.39 0,181.15 114.49,317.39 292.76,317.39 178.26,0 294.2,-136.24 294.2,-317.39 0,-179.71 -115.94,-317.39 -294.2,-317.39 z m 0,817.39 c -291.31,0 -504.36,-208.69 -504.36,-500 0,-291.31 213.05,-500 504.36,-500 292.75,0 505.8,208.69 505.8,500 0,291.31 -213.05,500 -505.8,500"
         style="fill:#5d2590;fill-opacity:1;fill-rule:nonzero;stroke:none"
         id="path18" /><path
         d="m 3722.76,2097.39 c 107.25,0 194.19,-62.32 234.79,-140.57 l 176.81,86.95 c -68.13,120.29 -191.3,236.23 -411.6,236.23 -282.61,0 -507.24,-202.9 -507.24,-500 0,-297.1 224.63,-500 507.24,-500 220.3,0 342.03,117.38 411.6,237.68 l -176.81,85.51 c -40.6,-79.71 -127.54,-140.58 -234.79,-140.58 -168.11,0 -295.65,134.77 -295.65,317.39 0,182.62 127.54,317.39 295.65,317.39"
         style="fill:#5d2590;fill-opacity:1;fill-rule:nonzero;stroke:none"
         id="path20" /><path
         d="m 5038.42,2264.06 h -253.63 l -342.02,-431.88 v 431.88 h -205.8 v -966.67 h 205.8 v 297.1 l 75.36,89.86 292.75,-386.96 h 253.63 l -410.15,513.05 384.06,453.62"
         style="fill:#5d2590;fill-opacity:1;fill-rule:nonzero;stroke:none"
         id="path22" /><path
         d="m 5494.49,1888.69 c -111.58,26.1 -192.75,46.38 -192.75,111.6 0,57.97 49.29,98.55 142.03,98.55 94.21,0 198.55,-33.33 276.82,-105.79 l 114.49,150.72 c -95.65,88.41 -223.19,134.78 -376.82,134.78 -227.52,0 -366.66,-130.43 -366.66,-291.3 0,-215.94 202.89,-259.43 360.88,-295.66 111.58,-26.08 195.64,-50.72 195.64,-123.19 0,-55.07 -55.07,-108.69 -168.12,-108.69 -133.32,0 -239.12,59.42 -307.24,130.43 l -113.03,-156.52 c 91.3,-91.31 224.63,-153.62 410.13,-153.62 260.87,0 386.96,133.33 386.96,310.14 0,214.49 -202.89,262.32 -362.33,298.55"
         style="fill:#5d2590;fill-opacity:1;fill-rule:nonzero;stroke:none"
         id="path24" /><path
         d="m 5980.73,1297.39 h 684.06 v 178.26 h -478.25 v 224.64 h 468.11 v 176.81 h -468.11 v 210.15 h 478.25 v 176.81 h -684.06 v -966.67"
         style="fill:#5d2590;fill-opacity:1;fill-rule:nonzero;stroke:none"
         id="path26" /><path
         d="M 6740.29,2264.06 V 2082.9 h 282.62 v -785.51 h 207.25 v 785.51 h 281.15 v 181.16 h -771.02"
         style="fill:#5d2590;fill-opacity:1;fill-rule:nonzero;stroke:none"
         id="path28" /><path
         d="m 1380,2570 v 200 H 780 V 790 h 600 V 990 H 980 v 1580 h 400"
         style="fill:#71c6df;fill-opacity:1;fill-rule:nonzero;stroke:none"
         id="path30" /><path
         d="m 7360,2570 v 200 h 600 V 790 h -600 v 200 h 400 v 1580 h -400"
         style="fill:#71c6df;fill-opacity:1;fill-rule:nonzero;stroke:none"
         id="path32" /></g></g></svg>
