<?xml version="1.0" encoding="UTF-8" standalone="no"?>
<svg
   width="90"
   height="41"
   viewBox="0 0 90 41"
   fill="none"
   version="1.1"
   id="svg5936"
   sodipodi:docname="Orca_logo-color.svg"
   inkscape:version="1.1.1 (3bf5ae0d25, 2021-09-20)"
   xmlns:inkscape="http://www.inkscape.org/namespaces/inkscape"
   xmlns:sodipodi="http://sodipodi.sourceforge.net/DTD/sodipodi-0.dtd"
   xmlns="http://www.w3.org/2000/svg"
   xmlns:svg="http://www.w3.org/2000/svg">
  <defs
     id="defs5940" />
  <sodipodi:namedview
     id="namedview5938"
     pagecolor="#ffffff"
     bordercolor="#666666"
     borderopacity="1.0"
     inkscape:pageshadow="2"
     inkscape:pageopacity="0.0"
     inkscape:pagecheckerboard="0"
     showgrid="false"
     inkscape:zoom="11.755556"
     inkscape:cx="44.957465"
     inkscape:cy="20.500944"
     inkscape:window-width="1920"
     inkscape:window-height="1010"
     inkscape:window-x="-6"
     inkscape:window-y="-6"
     inkscape:window-maximized="1"
     inkscape:current-layer="svg5936" />
  <g
     id="g41">
    <path
       d="m 28.9165,31.9909 c 0,-0.5789 0.5476,-0.8684 1.1683,-0.8684 0.6572,0 1.2414,0.2895 1.5335,0.9046 l 1.4604,-0.7961 c -0.5476,-1.0494 -1.643,-1.6646 -2.9939,-1.6646 -1.643,0 -2.9574,0.9409 -2.9574,2.4607 0,2.8588 4.3449,2.0627 4.3449,3.5102 0,0.6513 -0.5842,0.9047 -1.3875,0.9047 -0.8762,0 -1.5334,-0.4343 -1.789,-1.158 l -1.497,0.8685 c 0.5112,1.158 1.6795,1.8817 3.286,1.8817 1.7526,0 3.14,-0.8685 3.14,-2.4607 0.0365,-3.0036 -4.3083,-2.1351 -4.3083,-3.5826 z"
       fill="white"
       id="path5900"
       style="fill:#030659;fill-opacity:1" />
    <path
       d="m 43.1927,33.8003 c 0,-2.316 -1.643,-4.2339 -4.0527,-4.2339 -2.5193,0 -4.2718,1.8456 -4.2718,4.1977 0,2.3884 1.716,4.1977 4.3813,4.1977 1.57,0 2.8114,-0.6514 3.5416,-1.737 l -1.424,-0.8323 c -0.4016,0.579 -1.0953,0.9771 -2.0811,0.9771 -1.2779,0 -2.3002,-0.6514 -2.5923,-1.8817 h 6.426 c 0.0365,-0.181 0.073,-0.4343 0.073,-0.6876 z m -6.499,-0.6876 c 0.2556,-1.1941 1.1319,-1.9541 2.4463,-1.9541 1.0588,0 2.0811,0.579 2.3002,1.9541 z"
       fill="white"
       id="path5902"
       style="fill:#030659;fill-opacity:1" />
    <path
       d="m 51.3703,35.0658 c -0.4016,0.7238 -1.1684,1.2304 -2.1542,1.2304 -1.4239,0 -2.5192,-1.0856 -2.5192,-2.4969 0,-1.4113 1.0953,-2.4969 2.5192,-2.4969 0.9493,0 1.7526,0.4704 2.1177,1.2303 l 1.4969,-0.8685 c -0.6572,-1.2665 -2.0081,-2.0626 -3.6146,-2.0626 -2.4462,0 -4.2718,1.8093 -4.2718,4.1977 0,2.3883 1.8256,4.1977 4.2718,4.1977 1.57,0 2.9574,-0.7961 3.6146,-2.0989 z"
       fill="white"
       id="path5904"
       style="fill:#030659;fill-opacity:1" />
    <path
       d="m 60.3528,29.7812 v 4.3063 c 0,1.6284 -0.9128,2.316 -2.0446,2.316 -1.0953,0 -1.7891,-0.6514 -1.7891,-1.8456 v -4.7767 h -1.7525 v 4.9215 c 0,2.0989 1.2779,3.293 3.1035,3.293 1.0953,0 1.9716,-0.398 2.5192,-1.2303 v 1.0132 h 1.7526 v -7.9974 z"
       fill="white"
       id="path5906"
       style="fill:#030659;fill-opacity:1" />
    <path
       d="m 66.5963,31.1204 v -1.3389 h -1.7525 v 7.9973 h 1.7525 V 33.762 c 0,-1.7731 1.3509,-2.3159 2.4827,-2.2436 v -1.8817 c -0.9858,0 -1.9716,0.3981 -2.4827,1.4837 z"
       fill="white"
       id="path5908"
       style="fill:#030659;fill-opacity:1" />
    <path
       d="m 71.123,29.7812 v 7.9974 h 1.7526 v -7.9974 z"
       fill="white"
       id="path5910"
       style="fill:#030659;fill-opacity:1" />
    <path
       d="m 80.1414,31.4473 v -1.6646 h -2.0081 v -2.2436 l -1.7526,0.5066 v 1.737 h -1.4969 v 1.6646 h 1.4969 v 3.8358 c 0,2.0989 1.0589,2.8226 3.7607,2.4969 v -1.556 c -1.3144,0.0723 -2.0081,0.0723 -2.0081,-0.9409 v -3.8358 z"
       fill="white"
       id="path5912"
       style="fill:#030659;fill-opacity:1" />
    <path
       d="m 88.0281,29.7812 -2.0811,5.8262 -2.4097,-5.8262 h -1.8986 l 3.432,7.8526 -0.073,0.1448 c -0.4016,1.0494 -1.0223,1.6284 -2.1542,1.556 v 1.6285 c 1.8621,0.1085 3.1765,-0.9047 3.9432,-2.9312 l 3.1035,-8.2507 z"
       fill="white"
       id="path5914"
       style="fill:#030659;fill-opacity:1" />
    <path
       d="M 11.8664,0 C 10.479,0 9.1281,0.217123 7.88672,0.651368 9.82181,2.17123 11.3918,4.16152 12.3046,6.51368 c 2.7018,0.21712 4.7099,2.2436 4.7099,5.21092 0,2.9674 -1.9716,4.9938 -4.6369,5.211 -0.9128,2.3521 -2.44626,4.3786 -4.38135,5.8623 1.20487,0.398 2.51925,0.6152 3.87015,0.6152 6.572,0 11.8662,-5.1024 11.8662,-11.7247 C 23.7326,5.10238 18.4384,0 11.8664,0 Z"
       fill="white"
       id="path5916"
       style="fill:#030659;fill-opacity:1" />
    <path
       d="m 2.37328,4.62891 c -0.40163,0.50662 -0.76674,1.08561 -1.05883,1.6646 1.64301,1.26655 2.70183,3.22066 2.70183,5.46429 0,2.2436 -1.02231,4.1977 -2.66532,5.428 0.3286,0.579 0.69372,1.158 1.09534,1.6646 C 4.78301,17.3668 6.31648,14.7613 6.31648,11.7578 6.27997,8.71805 4.7465,6.11258 2.37328,4.62891 Z"
       fill="#0080ff"
       id="path5918" />
    <path
       d="m 9.31011,16.3203 c -0.87627,2.0989 -2.33671,3.8358 -4.19878,5.0662 0.62069,0.3981 1.27789,0.7599 1.9716,1.0494 1.93509,-1.3751 3.46857,-3.293 4.41787,-5.5366 -0.8033,0 -1.53349,-0.2171 -2.19069,-0.579 z"
       fill="#0080ff"
       id="path5920" />
    <path
       d="M 6.97415,1.01172 C 6.28044,1.30122 5.62324,1.66309 5.03906,2.09733 6.90113,3.32769 8.36158,5.06468 9.27436,7.12734 9.93156,6.76547 10.6618,6.54835 11.465,6.51216 10.4792,4.26856 8.94576,2.38683 6.97415,1.01172 Z"
       fill="#0080ff"
       id="path5922" />
    <path
       d="M 4.34424,2.60547 C 3.83308,3.03971 3.32192,3.47396 2.88379,3.98058 5.00144,5.3195 6.46188,7.49073 6.93653,10.06 7.22862,9.04677 7.8128,8.17828 8.57953,7.59929 7.70326,5.50044 6.24282,3.76346 4.34424,2.60547 Z"
       fill="#0080ff"
       id="path5924" />
    <path
       d="M 6.97423,13.4258 C 6.5361,15.9951 5.03914,18.1663 2.95801,19.5052 3.39614,20.0118 3.9073,20.4823 4.45496,20.8803 6.35354,19.6862 7.81399,17.9492 8.65375,15.8865 7.8505,15.2713 7.26632,14.439 6.97423,13.4258 Z"
       fill="#0080ff"
       id="path5926" />
    <path
       d="M 0.94929,7.05469 C 0.3286,8.46598 0,10.0582 0,11.7228 0,13.4236 0.365112,15.0159 0.985801,16.4633 2.33671,15.3777 3.17647,13.6769 3.17647,11.759 3.17647,9.84109 2.33671,8.1403 0.94929,7.05469 Z"
       fill="#0080ff"
       id="path5928" />
    <path
       d="M 40.272,0.179688 V 7.70661 C 37.4972,7.27236 33.554,8.35798 33.554,12.7728 V 22.7966 H 26.8359 V 0.613933 h 3.7972 c 1.3509,0 2.4462,0.904677 2.8114,2.098857 1.716,-1.62842 4.1257,-2.460728 6.4989,-2.533102 0,0 0,0 0.0365,0 0.0731,0 0.1826,0 0.2921,0 z"
       fill="white"
       id="path5930"
       style="fill:#030659;fill-opacity:1" />
    <path
       d="m 58.4543,14.51 c -0.8763,1.556 -2.5193,2.4969 -4.4544,2.4969 -2.9209,0 -5.1481,-2.0988 -5.1481,-5.2471 0,-3.1483 2.2272,-5.24715 5.1481,-5.24715 1.9351,0 3.5416,0.90468 4.4544,2.42454 L 64.1865,5.64416 C 62.1054,2.24257 58.3447,0.0351562 53.9999,0.0351562 c -6.572,0 -11.8661,5.1023838 -11.8661,11.7246438 0,6.6222 5.2941,11.7246 11.8661,11.7246 4.3813,0 8.1785,-2.2436 10.2231,-5.6814 z"
       fill="white"
       id="path5932"
       style="fill:#030659;fill-opacity:1" />
    <path
       d="m 86.2025,0.615181 c -1.3144,0 -2.4462,0.868489 -2.8113,2.098849 C 81.8577,1.01324 79.6305,0 76.6001,0 70.7218,0 65.9023,5.10238 65.9023,11.7246 c 0,6.6223 4.8195,11.7246 10.6978,11.7246 3.0304,0 5.2576,-1.0132 6.7911,-2.714 0.3651,1.1942 1.4604,2.0989 2.8113,2.0989 h 3.7972 V 11.7246 0.615181 Z M 77.805,16.9718 c -2.9209,0 -5.1481,-2.0989 -5.1481,-5.2472 0,-3.14825 2.2272,-5.24711 5.1481,-5.24711 2.9209,0 5.1481,2.09886 5.1481,5.24711 0,3.1483 -2.2637,5.2472 -5.1481,5.2472 z"
       fill="white"
       id="path5934"
       style="fill:#030659;fill-opacity:1" />
  </g>
</svg>
