<?xml version="1.0" encoding="UTF-8" standalone="no"?>
<!-- Created with Inkscape (http://www.inkscape.org/) -->

<svg
   version="1.1"
   id="svg311"
   xml:space="preserve"
   width="211.2"
   height="67.199997"
   viewBox="0 0 211.2 67.199997"
   sodipodi:docname="Anchore.svg"
   inkscape:version="1.1.1 (3bf5ae0d25, 2021-09-20)"
   xmlns:inkscape="http://www.inkscape.org/namespaces/inkscape"
   xmlns:sodipodi="http://sodipodi.sourceforge.net/DTD/sodipodi-0.dtd"
   xmlns="http://www.w3.org/2000/svg"
   xmlns:svg="http://www.w3.org/2000/svg"><defs
     id="defs315"><clipPath
       clipPathUnits="userSpaceOnUse"
       id="clipPath325"><path
         d="M 0,50.4 H 158.4 V 0 H 0 Z"
         id="path323" /></clipPath></defs><sodipodi:namedview
     id="namedview313"
     pagecolor="#ffffff"
     bordercolor="#666666"
     borderopacity="1.0"
     inkscape:pageshadow="2"
     inkscape:pageopacity="0.0"
     inkscape:pagecheckerboard="0"
     showgrid="false"
     inkscape:zoom="5.3645834"
     inkscape:cx="105.6"
     inkscape:cy="33.553398"
     inkscape:window-width="1920"
     inkscape:window-height="1010"
     inkscape:window-x="-6"
     inkscape:window-y="-6"
     inkscape:window-maximized="1"
     inkscape:current-layer="g317" /><g
     id="g317"
     inkscape:groupmode="layer"
     inkscape:label="Anchore_CMYK"
     transform="matrix(1.3333333,0,0,-1.3333333,0,67.2)"><g
       id="g319"
       style="fill:#567ebf;fill-opacity:1"><g
         id="g321"
         clip-path="url(#clipPath325)"
         style="fill:#567ebf;fill-opacity:1"><g
           id="g327"
           transform="translate(16.3037,9.6985)"
           style="fill:#567ebf;fill-opacity:1"><path
             d="m 0,0 c -3.134,0 -5.41,1.812 -5.41,4.31 0,2.284 1.25,2.985 3.88,3.614 L 3.939,9.389 C 4.664,9.55 5.186,9.74 5.539,9.976 L 5.409,5.486 V 5.48 C 5.409,0.534 1.626,0 0,0 m 0,23.306 c -4.041,0 -7.51,-2.335 -8.641,-5.846 -0.047,-0.446 0.069,-1.252 1.377,-1.656 1.434,-0.441 1.962,0.297 2.155,0.785 0.743,2.138 2.749,3.521 5.109,3.521 3.216,0 5.551,-2.15 5.551,-5.113 v -1.27 c 0,-0.593 -0.793,-0.981 -1.542,-1.147 l -6.385,-1.668 c -4.778,-1.087 -6.64,-2.939 -6.64,-6.602 0,-4.282 3.876,-7.511 9.016,-7.511 5.476,0 9.015,3.347 9.015,8.526 l 0.142,9.721 c 0,4.786 -3.851,8.26 -9.157,8.26"
             style="fill:#567ebf;fill-opacity:1;fill-rule:nonzero;stroke:none"
             id="path329" /></g><g
           id="g331"
           transform="translate(66.7223,16.0643)"
           style="fill:#567ebf;fill-opacity:1"><path
             d="m 0,0 c -1.144,0.16 -1.853,-0.335 -1.961,-0.91 -0.46,-2.521 -2.769,-4.351 -5.489,-4.351 -3.387,0 -5.576,2.372 -5.576,6.041 v 6.885 c 0,3.669 2.189,6.041 5.576,6.041 2.721,0 5.029,-1.83 5.489,-4.352 0.108,-0.573 0.81,-1.068 1.961,-0.909 0.635,0.09 1.138,0.348 1.419,0.728 0.187,0.254 0.265,0.554 0.218,0.848 -0.738,4.01 -4.559,6.919 -9.087,6.919 -4.441,0 -9.221,-2.821 -9.221,-9.016 V 0.521 c 0,-6.195 4.78,-9.016 9.221,-9.016 4.528,0 8.349,2.91 9.087,6.923 0.047,0.291 -0.031,0.591 -0.218,0.845 C 1.138,-0.347 0.634,-0.089 0,0"
             style="fill:#567ebf;fill-opacity:1;fill-rule:nonzero;stroke:none"
             id="path333" /></g><g
           id="g335"
           transform="translate(108.0103,16.9306)"
           style="fill:#567ebf;fill-opacity:1"><path
             d="m 0,0 c 0,-3.67 -2.19,-6.041 -5.58,-6.041 -3.388,0 -5.577,2.371 -5.577,6.041 v 6.799 c 0,3.669 2.189,6.041 5.577,6.041 3.39,0 5.58,-2.372 5.58,-6.041 z m -5.58,16.074 c -4.441,0 -9.221,-2.821 -9.221,-9.016 v -7.313 c 0,-6.195 4.78,-9.016 9.221,-9.016 4.443,0 9.225,2.821 9.225,9.016 v 7.313 c 0,6.195 -4.782,9.016 -9.225,9.016"
             style="fill:#567ebf;fill-opacity:1;fill-rule:nonzero;stroke:none"
             id="path337" /></g><g
           id="g339"
           transform="translate(37.7074,33.0047)"
           style="fill:#567ebf;fill-opacity:1"><path
             d="m 0,0 c -4.441,0 -9.221,-2.821 -9.221,-9.016 v -14.056 c 0,-0.19 0.042,-0.355 0.079,-0.479 l 0.064,-0.216 0.195,0.113 c 1.542,0.897 2.682,2.262 3.296,3.951 l 0.011,10.428 c 0,3.669 2.188,6.041 5.576,6.041 3.39,0 5.58,-2.372 5.58,-6.041 v -7.537 l 0.014,-0.067 c 0.658,-1.606 1.823,-2.901 3.368,-3.747 L 9.225,-20.77 V -9.016 C 9.225,-2.821 4.443,0 0,0"
             style="fill:#567ebf;fill-opacity:1;fill-rule:nonzero;stroke:none"
             id="path341" /></g><g
           id="g343"
           transform="translate(80.7169,33.0047)"
           style="fill:#567ebf;fill-opacity:1"><path
             d="M 0,0 C -2.061,0 -4.028,-0.581 -5.58,-1.644 V 9.381 c 0,0.964 -0.665,1.517 -1.823,1.517 -1.158,0 -1.822,-0.553 -1.822,-1.517 V -20.77 l 0.263,0.144 c 1.545,0.846 2.71,2.141 3.368,3.747 l 0.014,7.604 c 0,3.669 2.19,6.041 5.58,6.041 3.388,0 5.576,-2.372 5.576,-6.041 v -10.367 l 0.011,-0.061 c 0.614,-1.688 1.754,-3.054 3.296,-3.951 l 0.196,-0.113 0.064,0.217 c 0.036,0.123 0.078,0.289 0.078,0.478 V -9.016 C 9.221,-2.821 4.441,0 0,0"
             style="fill:#567ebf;fill-opacity:1;fill-rule:nonzero;stroke:none"
             id="path345" /></g><g
           id="g347"
           transform="translate(131.3385,29.5325)"
           style="fill:#567ebf;fill-opacity:1"><path
             d="M 0,0 C -1.616,2.42 -4.648,3.368 -7.014,3.457 V 3.472 L -7.334,3.469 -7.396,3.472 -7.574,3.464 V 3.46 c -6.104,-0.196 -8.839,-4.645 -8.839,-9.003 v -14.056 c 0,-0.19 0.042,-0.356 0.079,-0.479 l 0.064,-0.217 0.195,0.113 c 1.542,0.897 2.681,2.263 3.297,3.951 l 0.01,10.428 c 0,3.627 2.159,5.996 5.494,6.034 1.727,-0.031 3.161,-0.716 4.265,-2.034 0.672,-0.809 1.44,-0.942 2.288,-0.396 0.929,0.601 1.2,1.421 0.724,2.193 z"
             style="fill:#567ebf;fill-opacity:1;fill-rule:nonzero;stroke:none"
             id="path349" /></g><g
           id="g351"
           transform="translate(143.8026,21.8803)"
           style="fill:#567ebf;fill-opacity:1"><path
             d="m 0,0 -5.47,-1.465 c -0.725,-0.162 -1.247,-0.352 -1.6,-0.588 l 0.13,4.491 v 0.005 c 0,4.946 3.783,5.481 5.41,5.481 3.134,0 5.409,-1.813 5.409,-4.311 C 3.879,1.33 2.63,0.63 0,0 M 5.734,-7.881 C 4.302,-7.44 3.772,-8.179 3.579,-8.665 2.836,-10.804 0.83,-12.186 -1.53,-12.186 c -3.217,0 -5.552,2.15 -5.552,5.113 v 1.269 c 0,0.594 0.794,0.982 1.543,1.148 l 6.384,1.668 c 4.779,1.087 6.641,2.938 6.641,6.601 0,4.282 -3.876,7.511 -9.016,7.511 -5.477,0 -9.016,-3.347 -9.016,-8.526 l -0.142,-9.721 c 0,-4.786 3.852,-8.26 9.158,-8.26 4.041,0 7.51,2.336 8.64,5.847 0.058,0.544 -0.134,1.272 -1.376,1.655"
             style="fill:#567ebf;fill-opacity:1;fill-rule:nonzero;stroke:none"
             id="path353" /></g></g></g></g></svg>
