<?xml version="1.0" encoding="UTF-8" standalone="no"?>
<!-- Generator: Adobe Illustrator 24.0.3, SVG Export Plug-In . SVG Version: 6.00 Build 0)  -->

<svg
   version="1.1"
   id="Layer_1"
   x="0px"
   y="0px"
   viewBox="0 0 272 36.200001"
   xml:space="preserve"
   sodipodi:docname="Blameless_logo_PRINT_NOBG.svg"
   width="272"
   height="36.200001"
   inkscape:version="1.1.1 (3bf5ae0d25, 2021-09-20)"
   xmlns:inkscape="http://www.inkscape.org/namespaces/inkscape"
   xmlns:sodipodi="http://sodipodi.sourceforge.net/DTD/sodipodi-0.dtd"
   xmlns="http://www.w3.org/2000/svg"
   xmlns:svg="http://www.w3.org/2000/svg"><defs
   id="defs39" /><sodipodi:namedview
   id="namedview37"
   pagecolor="#ffffff"
   bordercolor="#666666"
   borderopacity="1.0"
   inkscape:pageshadow="2"
   inkscape:pageopacity="0.0"
   inkscape:pagecheckerboard="0"
   showgrid="false"
   fit-margin-top="0"
   fit-margin-left="0"
   fit-margin-right="0"
   fit-margin-bottom="0"
   inkscape:zoom="2.9388889"
   inkscape:cx="135.93573"
   inkscape:cy="13.270321"
   inkscape:window-width="1920"
   inkscape:window-height="1010"
   inkscape:window-x="-6"
   inkscape:window-y="-6"
   inkscape:window-maximized="1"
   inkscape:current-layer="Layer_1" />
<style
   type="text/css"
   id="style2">
	.st0{fill:#0D2640;}
	.st1{fill:#3BD4AE;}
</style>
<g
   id="g6"
   transform="translate(-43.9,-46.7)">
	<path
   class="st0"
   d="m 72.9,48.5 c 0,-0.5 0.2,-0.9 0.5,-1.3 0.4,-0.4 0.8,-0.5 1.3,-0.5 0.5,0 0.9,0.2 1.3,0.5 0.4,0.4 0.5,0.8 0.5,1.3 v 19.9 h 16.3 c 0.5,0 0.9,0.2 1.3,0.5 0.4,0.4 0.5,0.8 0.5,1.3 0,0.5 -0.2,0.9 -0.5,1.3 -0.4,0.4 -0.8,0.5 -1.3,0.5 H 74.7 C 74.2,72 73.8,71.8 73.4,71.5 73,71.1 72.9,70.7 72.9,70.2 Z"
   id="path4" />
</g>
<path
   class="st0"
   d="M 79.6,22.9 70.7,1.4 c 0,0 -0.3,-0.6 -0.6,-0.9 C 69.7,0.2 69.3,0 68.8,0 68.3,0 67.9,0.2 67.5,0.5 67.2,0.8 67,1.3 67,1.3 l -8.9,21.3 c -0.1,0.3 -0.2,0.5 -0.2,0.8 0,0.5 0.2,0.9 0.5,1.3 0.4,0.4 0.8,0.5 1.3,0.5 0.5,0 0.9,-0.2 1.3,-0.5 0.2,-0.2 0.3,-0.3 0.4,-0.5 l 1.5,-3.7 H 74.6 L 76,24 c 0.1,0.3 0.2,0.5 0.5,0.8 0.3,0.4 0.8,0.5 1.3,0.5 0.5,0 0.9,-0.2 1.3,-0.5 0.4,-0.4 0.5,-0.8 0.5,-1.3 0.1,-0.2 0.1,-0.4 0,-0.6 z M 64.5,17.1 68.9,6.5 73.3,17.1 Z"
   id="path8" />
<g
   id="g12"
   transform="translate(-43.9,-46.7)">
	<path
   class="st0"
   d="m 134.4,71 c -0.1,0.2 -0.2,0.4 -0.4,0.5 -0.4,0.4 -0.8,0.5 -1.3,0.5 -0.5,0 -0.9,-0.2 -1.3,-0.5 -0.4,-0.4 -0.5,-0.8 -0.5,-1.3 0,-0.3 0.1,-0.6 0.2,-0.8 L 140,48.1 c 0,0 0.3,-0.6 0.5,-0.8 0.3,-0.3 0.8,-0.5 1.3,-0.5 0.5,0 0.9,0.2 1.3,0.5 0.3,0.3 0.6,0.9 0.6,0.9 l 7.2,17.4 7.3,-17.4 c 0,0 0.3,-0.6 0.5,-0.8 0.3,-0.3 0.8,-0.5 1.3,-0.5 0.5,0 0.9,0.2 1.3,0.5 0.3,0.3 0.6,0.9 0.6,0.9 l 8.9,21.5 c 0.1,0.2 0.1,0.4 0.1,0.6 0,0.5 -0.2,0.9 -0.5,1.3 -0.4,0.4 -0.8,0.5 -1.3,0.5 -0.5,0 -0.9,-0.2 -1.3,-0.5 -0.2,-0.2 -0.4,-0.5 -0.5,-0.8 L 160,53.3 152.5,71 v 0 c -0.1,0.2 -0.2,0.4 -0.4,0.5 -0.4,0.4 -0.8,0.5 -1.3,0.5 -0.5,0 -0.9,-0.2 -1.3,-0.5 -0.2,-0.2 -0.4,-0.5 -0.5,-0.8 l -7.3,-17.6 z"
   id="path10" />
</g>
<g
   id="g16"
   transform="translate(-43.9,-46.7)">
	<path
   class="st0"
   d="m 207.1,48.5 c 0,-0.5 0.2,-0.9 0.5,-1.3 0.4,-0.4 0.8,-0.5 1.3,-0.5 0.5,0 0.9,0.2 1.3,0.5 0.4,0.4 0.5,0.8 0.5,1.3 V 68.4 H 227 c 0.5,0 0.9,0.2 1.3,0.5 0.4,0.4 0.5,0.8 0.5,1.3 0,0.5 -0.2,0.9 -0.5,1.3 -0.4,0.4 -0.8,0.5 -1.3,0.5 h -18.1 c -0.5,0 -0.9,-0.2 -1.3,-0.5 -0.4,-0.4 -0.5,-0.8 -0.5,-1.3 z"
   id="path14" />
</g>
<g
   id="g20"
   transform="translate(-43.9,-46.7)">
	<path
   class="st0"
   d="m 285.1,46.7 c 0.5,0 0.9,0.2 1.3,0.5 0.4,0.4 0.5,0.8 0.5,1.3 0,0.5 -0.2,0.9 -0.5,1.3 -0.4,0.4 -0.8,0.5 -1.3,0.5 h -12.7 c -1,0 -1.9,0.4 -2.6,1.1 -0.7,0.7 -1.1,1.6 -1.1,2.6 0,1 0.4,1.9 1.1,2.6 0.7,0.7 1.6,1.1 2.6,1.1 h 7.2 c 2,0 3.7,0.7 5.1,2.1 1.4,1.4 2.1,3.1 2.1,5.1 0,2 -0.7,3.7 -2.1,5.1 -1.4,1.4 -3.1,2.1 -5.1,2.1 H 267 c -0.5,0 -0.9,-0.2 -1.3,-0.5 -0.4,-0.4 -0.5,-0.8 -0.5,-1.3 0,-0.5 0.2,-0.9 0.5,-1.3 0.4,-0.4 0.8,-0.5 1.3,-0.5 h 12.7 c 1,0 1.9,-0.4 2.6,-1.1 0.7,-0.7 1.1,-1.6 1.1,-2.6 0,-1 -0.4,-1.9 -1.1,-2.6 -0.7,-0.7 -1.6,-1.1 -2.6,-1.1 h -7.2 c -2,0 -3.7,-0.7 -5.1,-2.1 -1.4,-1.4 -2.1,-3.1 -2.1,-5.1 0,-2 0.7,-3.7 2.1,-5.1 1.4,-1.4 3.1,-2.1 5.1,-2.1 z"
   id="path18" />
</g>
<g
   id="g24"
   transform="translate(-43.9,-46.7)">
	<path
   class="st0"
   d="m 314.1,46.7 c 0.5,0 0.9,0.2 1.3,0.5 0.4,0.4 0.5,0.8 0.5,1.3 0,0.5 -0.2,0.9 -0.5,1.3 -0.4,0.4 -0.8,0.5 -1.3,0.5 h -12.7 c -1,0 -1.9,0.4 -2.6,1.1 -0.7,0.7 -1.1,1.6 -1.1,2.6 0,1 0.4,1.9 1.1,2.6 0.7,0.7 1.6,1.1 2.6,1.1 h 7.2 c 2,0 3.7,0.7 5.1,2.1 1.4,1.4 2.1,3.1 2.1,5.1 0,2 -0.7,3.7 -2.1,5.1 -1.4,1.4 -3.1,2.1 -5.1,2.1 H 296 c -0.5,0 -0.9,-0.2 -1.3,-0.5 -0.4,-0.4 -0.5,-0.8 -0.5,-1.3 0,-0.5 0.2,-0.9 0.5,-1.3 0.4,-0.4 0.8,-0.5 1.3,-0.5 h 12.7 c 1,0 1.9,-0.4 2.6,-1.1 0.7,-0.7 1.1,-1.6 1.1,-2.6 0,-1 -0.4,-1.9 -1.1,-2.6 -0.7,-0.7 -1.6,-1.1 -2.6,-1.1 h -7.2 c -2,0 -3.7,-0.7 -5.1,-2.1 -1.4,-1.4 -2.1,-3.1 -2.1,-5.1 0,-2 0.7,-3.7 2.1,-5.1 1.4,-1.4 3.1,-2.1 5.1,-2.1 z"
   id="path22" />
</g>
<path
   class="st0"
   d="m 19.2,12.7 c 0.1,-0.1 0.2,-0.2 0.3,-0.3 1.4,-1.4 2.1,-3.1 2.1,-5.1 0,-2 -0.7,-3.7 -2.1,-5.1 C 18.1,0.8 16.4,0.1 14.4,0.1 H 1.8 C 1.3,0.1 0.9,0.3 0.5,0.6 0.1,1 0,1.4 0,1.9 0,2.4 0.2,2.8 0.5,3.2 0.9,3.6 1.3,3.7 1.8,3.7 h 12.7 c 1,0 1.9,0.4 2.6,1.1 0.7,0.7 1.1,1.6 1.1,2.6 0,1 -0.4,1.9 -1.1,2.6 -0.7,0.7 -1.6,1.1 -2.6,1.1 H 1.8 c -0.5,0 -0.9,0.2 -1.3,0.5 0,0 0,0 0,0 0,0 -0.1,0.1 -0.1,0.1 -0.2,0.2 -0.3,0.4 -0.4,0.7 0,0 0,0 0,0.1 0,0.1 0,0.1 0,0.2 0,0.1 0,0.1 0,0.2 v 10.9 c 0,0 0,0 0,0 0,0 0,0 0,0 0,0.5 0.2,0.9 0.5,1.3 0.4,0.4 0.8,0.5 1.3,0.5 h 12.7 c 2,0 3.7,-0.7 5.1,-2.1 1.4,-1.4 2.1,-3.1 2.1,-5.1 0,-2 -0.7,-3.7 -2.1,-5.1 -0.1,-0.4 -0.2,-0.5 -0.4,-0.6 z M 17,20.6 c -0.7,0.7 -1.6,1.1 -2.6,1.1 h -11 v -7.2 h 11 c 1,0 1.9,0.4 2.6,1.1 0.7,0.7 1.1,1.6 1.1,2.6 0,0.9 -0.4,1.7 -1.1,2.4 z"
   id="path26" />
<path
   class="st0"
   d="M 154.1,21.7 H 137.7 V 14.5 H 148 c 0.5,0 0.9,-0.2 1.3,-0.5 0.4,-0.4 0.5,-0.8 0.5,-1.3 0,-0.5 -0.2,-0.9 -0.5,-1.3 -0.4,-0.4 -0.8,-0.5 -1.3,-0.5 H 137.7 V 3.7 h 16.4 c 0.5,0 0.9,-0.2 1.3,-0.5 0.4,-0.4 0.5,-0.8 0.5,-1.3 0,-0.5 -0.2,-0.9 -0.5,-1.3 C 155,0.2 154.6,0.1 154.1,0.1 H 136 c -0.5,0 -0.9,0.2 -1.3,0.5 -0.4,0.4 -0.5,0.8 -0.5,1.3 0,0 0,0 0,0 0,0 0,0 0,0 v 21.6 c 0,0 0,0 0,0 0,0 0,0 0,0 0,0.5 0.2,0.9 0.5,1.3 0.4,0.4 0.8,0.5 1.3,0.5 h 18.1 c 0.5,0 0.9,-0.2 1.3,-0.5 0.4,-0.4 0.5,-0.8 0.5,-1.3 0,-0.5 -0.2,-0.9 -0.5,-1.3 -0.4,-0.3 -0.8,-0.5 -1.3,-0.5 z"
   id="path28" />
<path
   class="st0"
   d="M 212.1,21.7 H 195.7 V 14.5 H 206 c 0.5,0 0.9,-0.2 1.3,-0.5 0.4,-0.4 0.5,-0.8 0.5,-1.3 0,-0.5 -0.2,-0.9 -0.5,-1.3 -0.4,-0.4 -0.8,-0.5 -1.3,-0.5 H 195.7 V 3.7 h 16.4 c 0.5,0 0.9,-0.2 1.3,-0.5 0.4,-0.4 0.5,-0.8 0.5,-1.3 0,-0.5 -0.2,-0.9 -0.5,-1.3 C 213,0.2 212.6,0.1 212.1,0.1 H 194 c -0.5,0 -0.9,0.2 -1.3,0.5 -0.4,0.4 -0.5,0.8 -0.5,1.3 0,0 0,0 0,0 0,0 0,0 0,0 v 21.6 c 0,0 0,0 0,0 0,0 0,0 0,0 0,0.5 0.2,0.9 0.5,1.3 0.4,0.4 0.8,0.5 1.3,0.5 h 18.1 c 0.5,0 0.9,-0.2 1.3,-0.5 0.4,-0.4 0.5,-0.8 0.5,-1.3 0,-0.5 -0.2,-0.9 -0.5,-1.3 -0.4,-0.3 -0.8,-0.5 -1.3,-0.5 z"
   id="path30" />
<path
   class="st0"
   d="m 194,25.3 c -1,0 -1.7,-0.8 -1.7,-1.7 V 1.9 c 0,-1 0.8,-1.7 1.7,-1.7 1,0 1.7,0.8 1.7,1.7 v 21.7 c 0,0.9 -0.7,1.7 -1.7,1.7 z"
   id="path32" />
<path
   class="st1"
   d="M 19.8,36.2 H 1.8 C 0.8,36.2 0,35.4 0,34.4 v 0 c 0,-1 0.8,-1.8 1.8,-1.8 h 18 c 1,0 1.8,0.8 1.8,1.8 v 0 c 0,1 -0.8,1.8 -1.8,1.8 z"
   id="path34" />
</svg>
