<?xml version="1.0" encoding="UTF-8" standalone="no"?>
<svg
   width="500"
   height="106.51936"
   viewBox="0 0 500 106.51936"
   fill="none"
   version="1.1"
   id="svg16"
   sodipodi:docname="StrongDM_dark.svg"
   inkscape:version="1.1.1 (3bf5ae0d25, 2021-09-20)"
   xmlns:inkscape="http://www.inkscape.org/namespaces/inkscape"
   xmlns:sodipodi="http://sodipodi.sourceforge.net/DTD/sodipodi-0.dtd"
   xmlns="http://www.w3.org/2000/svg"
   xmlns:svg="http://www.w3.org/2000/svg">
  <defs
     id="defs20" />
  <sodipodi:namedview
     id="namedview18"
     pagecolor="#ffffff"
     bordercolor="#666666"
     borderopacity="1.0"
     inkscape:pageshadow="2"
     inkscape:pageopacity="0.0"
     inkscape:pagecheckerboard="0"
     showgrid="false"
     fit-margin-top="0"
     fit-margin-left="0"
     fit-margin-right="0"
     fit-margin-bottom="0"
     inkscape:zoom="3.3481013"
     inkscape:cx="157.85066"
     inkscape:cy="34.049149"
     inkscape:window-width="1920"
     inkscape:window-height="1010"
     inkscape:window-x="-6"
     inkscape:window-y="-6"
     inkscape:window-maximized="1"
     inkscape:current-layer="svg16" />
  <g
     id="g844"
     transform="scale(1.5827543)">
    <path
       d="M 7.2,52.4 C 4.2,51.6 1.8,50.5 0,49.3 l 2.1,-4.7 c 0.8,-1.9 3,-2.8 4.9,-1.9 0.9,0.4 1.9,0.7 2.9,1.1 2.4,0.7 4.8,1.1 7.1,1.1 4.7,0 7,-1.2 7,-3.7 0,-1.2 -0.6,-2 -1.9,-2.5 C 20.8,38.2 18.9,37.8 16.2,37.4 13.1,36.9 10.5,36.3 8.5,35.7 6.5,35 4.7,33.9 3.2,32.2 1.7,30.5 1,28.5 1,25.4 c 0,-2.6 0.7,-4.9 2.1,-6.8 1.4,-2 3.4,-3.5 6.1,-4.6 2.7,-1.1 5.8,-1.7 9.4,-1.7 2.7,0 5.4,0.3 8,0.9 2.7,0.6 4.9,1.5 6.6,2.6 L 31,20.5 c -0.8,1.9 -2.9,2.7 -4.7,2 -2.5,-1 -5,-1.5 -7.8,-1.5 -2.4,0 -4.1,0.4 -5.3,1.1 -1.2,0.7 -1.8,1.6 -1.8,2.7 0,1.3 0.6,2.1 1.9,2.6 1.3,0.5 3.3,1 6.1,1.4 3.1,0.6 5.6,0.9 7.6,1.5 2,0.6 3.7,1.8 5.2,3.4 1.5,1.7 2.2,4 2.2,7 0,2.5 -0.7,4.8 -2.1,6.7 -1.4,2 -3.5,3.5 -6.2,4.6 -2.7,1.1 -5.9,1.6 -9.6,1.6 -3.2,0.1 -6.3,-0.3 -9.3,-1.2 z"
       fill="#012f51"
       id="path2" />
    <path
       d="m 81.4,16 c 2.2,-0.9 4.8,-1.4 7.7,-1.4 v 7.6 c 0,1.4 -1.1,2.4 -2.5,2.4 -3.2,0 -5.6,0.9 -7.4,2.6 -1.8,1.8 -2.7,4.4 -2.7,7.9 V 53 h -11 V 15 H 76 v 5 c 1.3,-1.7 3.1,-3.1 5.4,-4 z"
       fill="#012f51"
       id="path4" />
    <path
       d="m 99.1,51.2 c -3.2,-1.7 -5.7,-4 -7.4,-7 C 90,41.2 89,37.9 89,34.1 89,30.3 89.9,27 91.7,24 c 1.8,-3 4.3,-5.3 7.4,-7 3.2,-1.7 6.8,-2.5 10.8,-2.5 4,0 7.6,0.8 10.7,2.5 3.2,1.7 5.6,4 7.4,7 1.8,3 2.7,6.3 2.7,10.1 0,3.8 -0.9,7.1 -2.7,10.1 -1.8,3 -4.3,5.3 -7.4,7 -3.2,1.7 -6.7,2.5 -10.7,2.5 -4,0 -7.6,-0.9 -10.8,-2.5 z m 17.8,-9.4 c 1.8,-1.9 2.7,-4.5 2.7,-7.7 0,-3.2 -0.9,-5.8 -2.7,-7.7 -1.8,-1.9 -4.1,-2.9 -7,-2.9 -2.8,0 -5.2,1 -7,2.9 -1.8,1.9 -2.8,4.5 -2.8,7.7 0,3.2 0.9,5.8 2.8,7.7 1.8,1.9 4.2,2.9 7,2.9 2.8,-0.1 5.1,-1 7,-2.9 z"
       fill="#012f51"
       id="path6" />
    <path
       d="m 168.3,18.8 c 2.9,2.8 4.3,7 4.3,12.6 v 18 c 0,2.1 -1.7,3.7 -3.7,3.7 h -7.3 v -20 c 0,-3 -0.7,-5.3 -2,-6.7 -1.3,-1.5 -3.2,-2.2 -5.7,-2.2 -2.8,0 -5,0.9 -6.6,2.6 -1.6,1.7 -2.5,4.3 -2.5,7.7 v 18.8 h -11 v -38 h 10.5 v 4.4 c 1.5,-1.6 3.3,-2.8 5.4,-3.7 2.1,-0.9 4.5,-1.3 7.1,-1.3 4.8,-0.1 8.6,1.3 11.5,4.1 z"
       fill="#012f51"
       id="path8" />
    <path
       d="m 218,15.1 v 31.6 c 0,7 -1.8,12.1 -5.4,15.5 -3.6,3.4 -8.9,5.1 -15.9,5.1 -3.7,0 -7.2,-0.4 -10.4,-1.3 -3.3,-0.9 -6,-2.2 -8.2,-3.9 l 2.5,-4.5 c 1,-1.8 3.2,-2.4 5,-1.5 0.9,0.5 1.9,0.9 3,1.2 2.4,0.8 4.9,1.2 7.3,1.2 3.8,0 6.6,-0.9 8.4,-2.6 1.8,-1.7 2.7,-4.3 2.7,-7.8 v -1.6 c -2.9,3.2 -6.9,4.7 -12,4.7 -3.5,0 -6.7,-0.8 -9.6,-2.3 -2.9,-1.5 -5.2,-3.7 -6.9,-6.5 -1.7,-2.8 -2.5,-6 -2.5,-9.6 0,-3.6 0.8,-6.8 2.5,-9.6 1.7,-2.8 4,-4.9 6.9,-6.5 2.9,-1.5 6.1,-2.3 9.6,-2.3 5.5,0 9.7,1.8 12.6,5.4 V 14.9 H 218 Z m -13.7,24.6 c 1.9,-1.7 2.8,-4 2.8,-6.7 0,-2.8 -0.9,-5 -2.8,-6.7 -1.9,-1.7 -4.2,-2.6 -7.2,-2.6 -2.9,0 -5.3,0.9 -7.2,2.6 -1.9,1.7 -2.8,4 -2.8,6.7 0,2.8 0.9,5 2.8,6.7 1.9,1.7 4.3,2.6 7.2,2.6 3,-0.1 5.4,-0.9 7.2,-2.6 z"
       fill="#012f51"
       id="path10" />
    <path
       d="m 57.6,44.9 c -1.5,0 -2.7,-0.4 -3.5,-1.3 -0.8,-0.9 -1.2,-2.1 -1.2,-3.7 v -16 h 5.7 c 2.1,0 3.7,-1.7 3.7,-3.7 V 15.5 H 52.9 V 6.7 h -11 v 8.7 H 36 v 8.5 h 5.9 v 16.2 c 0,4.5 1.2,7.9 3.7,10.2 2.5,2.3 6,3.5 10.5,3.5 1.7,0 3.4,-0.2 5,-0.6 0.4,-0.1 0.9,-0.2 1.3,-0.4 v -9.1 c -1.3,0.7 -3.3,1.2 -4.8,1.2 z"
       fill="#012f51"
       id="path12" />
    <path
       d="m 311.8,18.9 c -2.8,-2.8 -6.6,-4.2 -11.4,-4.2 -3.4,0 -6.4,0.7 -9,2.1 -2.2,1.2 -3.9,2.7 -5.3,4.7 -1.2,-2 -2.7,-3.6 -4.7,-4.7 -2.4,-1.4 -5.2,-2.1 -8.4,-2.1 -3.1,0 -5.9,0.6 -8.4,1.9 -1.5,0.8 -2.9,1.8 -4,3.1 V 3.3 C 260.6,1.5 259.1,0 257.3,0 H 254 v 20.2 c -1.3,-1.5 -2.9,-2.7 -4.6,-3.6 -2.5,-1.3 -5.3,-1.9 -8.4,-1.9 -3.5,0 -6.8,0.8 -9.7,2.4 -2.9,1.6 -5.2,3.9 -6.8,6.9 -1.6,2.9 -2.5,6.3 -2.5,10 0,3.7 0.8,7.1 2.5,10 1.6,2.9 3.9,5.3 6.8,6.9 2.9,1.6 6.2,2.5 9.7,2.5 3.2,0 6.1,-0.7 8.6,-2 1.7,-0.9 3.2,-2.1 4.5,-3.6 v 4.4 l 0.1,0.9 h 6.5 v -20 c 0,-3.9 1,-6.9 3.1,-9.1 2,-2.2 4.7,-3.2 8.3,-3.2 3.1,0 5.5,0.9 7.2,2.7 1.7,1.8 2.5,4.5 2.5,8.1 v 21.5 h 6.6 v -20 c 0,-3.9 1,-6.9 3,-9.1 2,-2.2 4.7,-3.2 8.3,-3.2 3.1,0 5.4,0.9 7.1,2.7 1.7,1.8 2.5,4.5 2.5,8.1 v 21.5 h 2.9 c 2,0 3.7,-1.7 3.7,-3.7 V 31.1 c 0.1,-5.3 -1.3,-9.4 -4.1,-12.2 z m -70.3,28.5 c -2.4,0 -4.6,-0.6 -6.5,-1.7 -1.9,-1.1 -3.4,-2.7 -4.5,-4.7 -1.1,-2 -1.7,-4.4 -1.7,-7 0,-2.6 0.6,-5 1.7,-7 1.1,-2 2.6,-3.6 4.5,-4.7 1.9,-1.1 4.1,-1.7 6.5,-1.7 2.4,0 4.5,0.6 6.5,1.7 1.9,1.1 3.4,2.7 4.5,4.7 1.1,2 1.7,4.4 1.7,7 0,2.6 -0.6,5 -1.7,7 -1.1,2 -2.6,3.6 -4.5,4.7 -1.9,1.1 -4.1,1.7 -6.5,1.7 z"
       fill="#00b7ff"
       id="path14" />
  </g>
</svg>
