<?xml version="1.0" encoding="UTF-8" standalone="no"?>
<!-- Generator: Adobe Illustrator 28.1.0, SVG Export Plug-In . SVG Version: 6.00 Build 0)  -->
<svg xmlns:inkscape="http://www.inkscape.org/namespaces/inkscape" xmlns:sodipodi="http://sodipodi.sourceforge.net/DTD/sodipodi-0.dtd" xmlns="http://www.w3.org/2000/svg" xmlns:svg="http://www.w3.org/2000/svg" version="1.1" id="a" x="0px" y="0px" viewBox="0 0 416.29629 100" xml:space="preserve" sodipodi:docname="Instaclustr_logo.svg" width="416.2963" height="100" inkscape:version="1.2.2 (b0a84865, 2022-12-01)"><defs id="defs241"></defs>
<style type="text/css" id="style182">
	.st0{fill:#00BBEB;}
	.st1{fill:#001050;}
</style>
<g id="g236" transform="matrix(0.46296296,0,0,0.46296296,-22.685185,-21.296296)">
	<g id="g216">
		<g id="g214">
			<rect x="49" y="46" class="st0" width="30.1" height="25.4" id="rect184"></rect>
			<rect x="49" y="82.400002" class="st1" width="30.1" height="25.4" id="rect186"></rect>
			<rect x="49" y="119" class="st1" width="30.1" height="25.4" id="rect188"></rect>
			<rect x="49" y="155.10001" class="st1" width="30.1" height="25.4" id="rect190"></rect>
			<g id="g208">
				<path class="st1" d="m 176.3,91.1 c -2.8,-3.4 -6.6,-6.6 -11.3,-8.5 -4.7,-1.9 -10.7,-3.1 -17.9,-3.1 -5.6,0 -11.3,1.3 -16.9,4.1 -4.1,1.9 -7.5,4.7 -10.3,8.2 V 82.1 H 91 v 98.7 h 30.1 v -51.4 c 0,-9.1 1.6,-15.7 4.4,-19.4 2.8,-3.8 7.2,-5.6 13.8,-5.6 5.6,0 9.4,1.6 11.3,5 2.2,3.4 3.1,9.1 3.1,16.3 v 55.5 h 30.1 v -60.5 c 0,-6 -0.6,-11.3 -1.6,-16.3 -1.2,-5.1 -3.1,-9.5 -5.9,-13.3" id="path192"></path>
				<path class="st1" d="m 274.1,128.1 c -3.1,-2.2 -6.6,-3.8 -10,-5 -3.4,-1.3 -7.5,-2.2 -11.3,-3.1 -3.8,-0.9 -7.5,-1.6 -11,-2.5 -3.5,-0.9 -6.6,-1.6 -9.1,-2.5 -2.5,-0.9 -4.7,-1.9 -6,-3.1 -1.3,-1.3 -1.9,-2.5 -1.9,-4.1 0,-1.6 0.3,-2.5 0.9,-3.4 0.6,-0.9 1.6,-1.6 2.8,-2.2 1.3,-0.6 2.5,-0.9 4.1,-0.9 1.6,0 3.1,-0.3 4.7,-0.3 4.4,0 8.2,0.9 11.3,2.5 2.8,1.6 4.4,4.4 4.7,8.5 v 1.9 h 28.8 v -2.2 c -0.6,-6.3 -2.2,-11.3 -5,-15.4 -2.8,-4.1 -6,-7.5 -10,-9.7 -4.1,-2.5 -8.5,-4.1 -13.5,-5 -5,-0.9 -10,-1.6 -15.4,-1.6 -5.3,0 -10.3,0.3 -15.4,1.6 -5,0.9 -9.7,2.5 -13.8,5 -4.1,2.5 -7.5,5.6 -10,10 -2.5,4.1 -3.8,9.7 -3.8,16 0,4.7 0.9,8.5 2.8,11.6 1.9,3.1 4.4,5.6 7.5,7.8 3.1,1.9 6.3,3.4 10,5 3.4,1.3 7.5,2.2 11.3,3.1 9.1,1.9 16.3,3.8 21.3,5.6 6.6,2.5 6.6,5.6 6.6,6.9 0,1.9 -0.3,3.4 -1.3,4.7 -0.9,1.3 -1.9,2.2 -3.4,3.1 -1.5,0.9 -3.1,1.6 -5,1.9 -1.9,0.3 -3.8,0.6 -5.3,0.6 -2.5,0 -4.7,-0.3 -6.9,-0.9 -2.2,-0.6 -4.1,-1.6 -5.6,-2.5 -1.6,-1.3 -2.8,-2.5 -3.8,-4.4 v 0 c -0.9,-1.6 -1.6,-3.8 -1.6,-6.3 v -1.9 h -29.2 v 2.2 c 0.3,6.6 1.9,12.2 4.7,16.9 2.8,4.4 6.6,8.2 10.7,11 4.1,2.8 9.1,4.7 14.7,5.6 5.3,1.3 11,1.6 16.6,1.6 5.3,0 11,-0.6 16.3,-1.6 5.3,-1.3 10.3,-3.1 14.7,-5.6 4.4,-2.5 7.8,-6.6 10.3,-11 2.8,-4.7 4.1,-10 4.1,-16.6 0,-4.7 -0.9,-8.8 -2.8,-12.2 -2.5,-4 -5,-6.6 -7.8,-9.1" id="path194"></path>
				<path class="st1" d="M 331.5,53.8 H 301.4 V 82 h -15.7 v 21.3 h 15.7 V 157 c 0,5 0.9,9.4 2.5,12.5 1.6,3.1 4.1,6 7.2,7.5 3.1,1.5 6.6,2.8 10.3,3.4 3.8,0.6 7.5,0.9 11.6,0.9 2.5,0 5,0 8.2,0 2.8,0 5.3,-0.3 7.5,-0.6 l 1.6,-0.3 v -24.1 l -2.5,0.3 c -1.3,0.3 -2.5,0.3 -3.4,0.6 -1.3,0 -2.5,0 -4.1,0 -5,0 -9.1,-1.6 -9.1,-9.7 v -43.9 h 19.1 V 82.4 h -19.1 z" id="path196"></path>
				<path class="st1" d="m 616.1,171.7 c 2.8,3.4 6.6,6.6 11.3,8.5 4.7,1.9 10.7,3.1 17.9,3.1 5.6,0 11.3,-1.3 16.9,-4.1 4.1,-1.9 7.5,-4.7 10.3,-8.2 v 9.7 h 28.8 V 82.1 h -30.1 v 51.7 c 0,9.1 -1.6,15.7 -4.4,19.4 -2.8,3.8 -7.2,5.6 -13.8,5.6 -5.6,0 -9.4,-1.6 -11.3,-5 -2.2,-3.4 -3.1,-9.1 -3.1,-16.3 V 82.1 h -30.1 v 60.2 c 0,6 0.6,11.3 1.6,16.3 1.3,5.3 3.5,9.7 6,13.1" id="path198"></path>
				<path class="st1" d="m 792,128.1 c -3.1,-2.2 -6.6,-3.8 -10,-5 -3.4,-1.3 -7.5,-2.2 -11.3,-3.1 -3.8,-0.9 -7.5,-1.6 -11,-2.5 -3.4,-0.6 -6.6,-1.6 -9.1,-2.5 -2.5,-0.9 -4.7,-1.9 -6,-3.1 -1.3,-1.3 -1.9,-2.5 -1.9,-4.1 0,-1.6 0.3,-2.5 0.9,-3.4 0.6,-0.9 1.6,-1.6 2.8,-2.2 1.3,-0.6 2.5,-0.9 4.1,-0.9 1.6,0 3.1,-0.3 4.7,-0.3 4.4,0 8.2,0.9 11.3,2.5 2.8,1.6 4.4,4.4 4.7,8.5 v 1.9 H 800 v -2.2 c -0.6,-6.3 -2.2,-11.3 -5,-15.4 -2.8,-4.1 -6,-7.5 -10,-9.7 -4.1,-2.5 -8.5,-4.1 -13.5,-5 -5,-0.9 -10,-1.6 -15.4,-1.6 -5.3,0 -10.3,0.3 -15.4,1.6 -5,0.9 -9.7,2.5 -13.8,5 -4.1,2.5 -7.5,5.6 -10,10 -2.5,4.1 -3.8,9.7 -3.8,16 0,4.7 0.9,8.5 2.8,11.6 1.9,3.1 4.4,5.6 7.5,7.8 3.1,1.9 6.3,3.4 10,5 3.4,1.3 7.5,2.2 11.3,3.1 9.1,1.9 16.3,3.8 21.3,5.6 6.6,2.5 6.6,5.6 6.6,6.9 0,1.9 -0.3,3.4 -1.3,4.7 -0.9,1.3 -1.9,2.2 -3.4,3.1 -1.5,0.9 -3.1,1.6 -5,1.9 -1.9,0.3 -3.8,0.6 -5.3,0.6 -2.5,0 -4.7,-0.3 -6.9,-0.9 -2.2,-0.6 -4.1,-1.6 -5.6,-2.5 -1.6,-1.3 -2.8,-2.5 -3.8,-4.4 v 0 c -0.9,-1.6 -1.6,-3.8 -1.6,-6.3 v -1.9 h -28.8 v 2.2 c 0.3,6.6 1.9,12.2 4.7,16.9 2.8,4.4 6.6,8.2 10.7,11 4.1,2.8 9.1,4.7 14.7,5.6 5.3,1.3 11,1.6 16.6,1.6 5.3,0 11,-0.6 16.3,-1.6 5.3,-1.3 10.3,-3.1 14.7,-5.6 4.4,-2.8 7.8,-6.6 10.3,-11 2.8,-4.7 4.1,-10 4.1,-16.6 0,-4.7 -0.9,-8.8 -2.8,-12.2 -2.9,-4 -5.4,-6.6 -8.2,-9.1" id="path200"></path>
				<path class="st1" d="M 849.4,53.8 H 819.3 V 82 h -15.7 v 21.3 h 15.7 V 157 c 0,5 0.9,9.4 2.5,12.5 1.6,3.1 4.1,6 7.2,7.5 3.1,1.5 6.6,2.8 10.3,3.4 3.8,0.6 7.5,0.9 11.6,0.9 2.5,0 5,0 8.2,0 2.8,0 5.3,-0.3 7.5,-0.6 l 1.6,-0.3 v -24.1 l -2.5,0.3 c -1.3,0.3 -2.5,0.3 -3.4,0.6 -1.3,0 -2.5,0 -4.1,0 -5,0 -9.1,-1.6 -9.1,-9.7 v -43.9 h 19.1 V 82.4 h -19.1 z" id="path202"></path>
				<path class="st1" d="m 421.5,142.2 c 0,1.3 0,3.1 -0.3,5.6 -0.3,2.2 -0.9,4.4 -2.2,6.6 -1.3,1.9 -3.1,3.8 -5.6,5.3 -2.5,1.6 -6.3,2.2 -11,2.2 -1.9,0 -3.8,0 -5.6,-0.6 -1.6,-0.3 -3.1,-0.9 -4.4,-1.6 -1.3,-0.6 -2.2,-1.6 -2.8,-3.1 -0.6,-1.3 -0.9,-2.8 -0.9,-5 0,-2.2 0.3,-3.8 0.9,-5 0.6,-1.2 1.6,-2.5 2.8,-3.1 1.3,-0.9 2.8,-1.6 4.4,-2.2 1.9,-0.6 3.8,-0.9 5.3,-1.6 1.9,-0.3 4.1,-0.6 6.3,-0.9 2.2,-0.3 4.1,-0.6 6.3,-0.9 1.9,-0.3 3.8,-0.9 5.6,-1.6 0.6,0 0.9,-0.3 1.6,-0.6 z m 30.7,27.6 c -0.3,-3.8 -0.6,-7.8 -0.6,-11.9 v -49.5 c 0,-6.3 -1.6,-11.3 -4.4,-15 -2.8,-3.7 -6.3,-6.6 -10.7,-8.8 -4.1,-1.9 -8.8,-3.4 -14.1,-4.1 -5,-0.6 -9.7,-0.9 -14.7,-0.9 -5.3,0 -10.7,0.6 -16,1.6 -5.3,1.3 -10.3,2.8 -14.7,5.3 -4.4,2.5 -8.2,6 -11,10.3 -2.8,4.4 -4.7,9.7 -5,16.3 v 2.2 h 30 v -1.9 c 0.3,-4.7 1.9,-7.8 4.4,-9.7 2.5,-1.9 6.3,-2.8 11,-2.8 2.2,0 4.4,0 6.3,0.3 1.6,0.3 3.1,0.9 4.7,1.6 1.3,0.6 2.2,1.6 3.1,3.1 0.6,1.3 1.3,3.1 1.3,5.6 v 0 c 0,1.9 -0.3,3.4 -1.6,4.4 -1.6,1.3 -3.4,2.2 -6.3,2.8 -2.9,0.6 -6.3,1.3 -9.7,1.6 -3.8,0.3 -7.8,0.9 -11.6,1.6 -4.1,0.6 -8.2,1.6 -11.9,2.5 -4.1,1.3 -7.8,2.8 -11,5 -3.1,2.2 -6,5.3 -8.2,9.1 -1.9,3.8 -3.1,8.5 -3.1,14.4 0,5 0.9,9.7 2.8,13.5 1.6,3.8 4.4,6.9 7.5,9.7 3.1,2.5 6.9,4.4 11,5.3 4.1,1.3 8.5,1.6 13.2,1.6 6,0 11.9,-0.9 17.9,-2.8 4.7,-1.6 8.8,-3.8 12.5,-6.6 0,0.3 0,0.6 0,0.9 0.3,1.6 0.6,3.1 1.3,4.7 l 0.3,1.6 h 31.3 l -1.9,-3.1 c -0.9,-1.6 -1.8,-4.4 -2.1,-7.9" id="path204"></path>
				<path class="st1" d="m 529,140.7 -0.3,1.6 c -0.9,5.3 -2.8,9.7 -5.6,12.9 -3.1,3.1 -7.2,4.7 -12.9,4.7 -3.4,0 -6.6,-0.9 -9.1,-2.5 -2.5,-1.6 -4.7,-3.8 -6,-6.3 -1.6,-2.8 -2.8,-5.6 -3.1,-9.1 -0.6,-3.4 -0.9,-6.6 -0.9,-10 0,-3.4 0.3,-6.9 0.9,-10.3 0.6,-3.4 1.9,-6.6 3.4,-9.4 1.5,-2.8 3.8,-5 6.3,-6.6 2.5,-1.6 5.6,-2.5 9.4,-2.5 10,0 15.7,4.7 17.2,14.7 l 0.3,1.6 h 29.2 v -2.2 c -0.3,-6.6 -1.9,-11.9 -4.7,-16.6 -2.8,-4.7 -6.3,-8.5 -10.7,-11.9 -4.4,-3.1 -9.1,-5.3 -14.7,-6.9 -5.3,-1.6 -11,-2.2 -16.6,-2.2 -7.8,0 -15,1.3 -21.3,4.1 -6.3,2.8 -11.6,6.6 -16,11.3 -4.4,4.7 -7.5,10.3 -9.7,16.9 -2.2,6.6 -3.1,13.5 -3.1,21 0,7.2 1.3,14.1 3.4,20.4 2.5,6.3 6,11.6 10,16 4.1,4.4 9.7,8.2 16,10.3 6.3,2.5 13.2,3.8 20.4,3.8 13.2,0 23.8,-3.4 32.3,-10.3 8.5,-6.9 13.5,-16.9 15.4,-30.1 l -0.3,-2.2 H 529 Z" id="path206"></path>
			</g>
			<polygon class="st1" points="597,123.4 597,110.9 597,53.8 566.9,53.8 566.9,110.9 566.9,123.4 566.9,180.8 597,180.8 " id="polygon210"></polygon>
			<path class="st1" d="m 947.8,80.5 c -3.1,-0.6 -7.2,-0.9 -11.3,-0.9 -5.6,0 -11.3,1.3 -16.9,4.1 -4.1,1.9 -7.5,4.7 -10.3,8.2 v -9.7 h -28.8 v 98.7 h 30.1 v -49.2 c 0,-9.1 1.6,-15.7 4.4,-19.4 2.8,-3.8 7.2,-5.6 13.8,-5.6 12.9,0 19.4,3.1 19.4,3.1 z" id="path212"></path>
		</g>
	</g>
	<g id="g234">
		<path d="m 656.2,235.5 c 0,2.5 -0.3,4.7 -1,6.6 -0.7,1.9 -1.6,3.5 -2.8,4.8 -1.2,1.3 -2.6,2.3 -4.2,3 -1.6,0.7 -3.3,1 -5,1 -2.4,0 -4.5,-0.6 -6.3,-1.8 -1.7,-1.2 -3.1,-2.8 -4,-4.8 v 6.2 h -6.4 v -42.2 h 6.4 v 18.8 c 1,-2.2 2.5,-3.9 4.4,-5 1.9,-1.1 4,-1.7 6.3,-1.7 1.7,0 3.3,0.3 4.8,0.9 1.5,0.6 2.9,1.5 4,2.7 1.1,1.2 2.1,2.8 2.7,4.7 0.7,2 1.1,4.3 1.1,6.8 z m -15,10.1 c 2.8,0 4.9,-0.9 6.4,-2.7 1.4,-1.8 2.1,-4.2 2.1,-7.2 0,-3.1 -0.7,-5.6 -2.2,-7.3 -1.5,-1.8 -3.6,-2.7 -6.4,-2.7 -1.4,0 -2.7,0.3 -3.8,0.8 -1.1,0.5 -2,1.2 -2.7,2.1 -0.7,0.9 -1.3,2 -1.6,3.2 -0.4,1.2 -0.5,2.6 -0.5,4 0,2.9 0.7,5.2 2.1,7.1 1.3,1.8 3.5,2.7 6.6,2.7 z" id="path218"></path>
		<path d="M 689,220.9 671.5,262 h -6.7 l 5.2,-11.9 -12.4,-29.2 h 6.6 l 7.9,19.1 1.2,3.9 1.3,-3.9 7.7,-19.1 z" id="path220"></path>
		<path d="m 718.4,221.7 v 28.8 h -6.3 v -38.7 h 7.7 l 16.8,28.2 1.6,3.5 -0.2,-3.8 v -27.9 h 6.3 v 38.7 h -7.2 L 719.7,221.2 718,218 Z" id="path222"></path>
		<path d="m 778.9,244 c -1.2,2 -2.9,3.7 -5.1,5.1 -2.2,1.4 -4.9,2 -8.2,2 -2.5,0 -4.8,-0.4 -6.7,-1.2 -1.9,-0.8 -3.5,-1.8 -4.8,-3.2 -1.3,-1.3 -2.2,-2.9 -2.9,-4.8 -0.7,-1.9 -1,-3.9 -1,-6 0,-2.1 0.4,-4.1 1.1,-6 0.7,-1.9 1.7,-3.6 3,-5 1.3,-1.4 2.9,-2.5 4.8,-3.4 1.9,-0.8 4,-1.2 6.4,-1.2 2.4,0 4.5,0.4 6.3,1.2 1.8,0.8 3.3,1.9 4.4,3.2 1.2,1.3 2,2.9 2.6,4.7 0.6,1.8 0.9,3.7 0.9,5.7 v 2.2 h -23.2 c 0.2,2.5 1.1,4.6 2.6,6 1.5,1.5 3.7,2.2 6.4,2.2 2,0 3.6,-0.4 4.8,-1.2 1.2,-0.8 2.3,-2 3.2,-3.5 z m -13.5,-18.4 c -2.5,0 -4.5,0.7 -6,2.1 -1.5,1.4 -2.5,3.3 -2.8,5.7 h 16.8 c -0.1,-2.3 -0.8,-4.1 -2.1,-5.6 -1.3,-1.5 -3.2,-2.2 -5.9,-2.2 z" id="path224"></path>
		<path d="m 803.2,244.7 v 5.2 c -0.8,0.4 -1.6,0.6 -2.5,0.8 -0.9,0.2 -1.8,0.3 -2.9,0.3 -3.2,0 -5.5,-0.8 -6.9,-2.5 -1.4,-1.7 -2.1,-4.2 -2.1,-7.4 V 226.2 H 782 v -5.3 h 6.8 v -7.6 l 6,-3.6 v 11.2 h 8.4 v 5.3 h -8.4 v 14.2 c 0,1.9 0.4,3.2 1.1,4 0.7,0.8 1.9,1.2 3.3,1.2 0.8,0 1.5,-0.1 2,-0.2 0.7,-0.2 1.4,-0.4 2,-0.7 z" id="path226"></path>
		<path d="m 807.1,250.6 15,-38.7 h 7.4 l 15,38.7 h -6.8 l -3,-8.1 h -17.9 l -3,8.1 z m 17.4,-28.6 -5.8,15.7 H 833 l -5.9,-15.7 -1.3,-4.2 z" id="path228"></path>
		<path d="m 878.5,235.5 c 0,2.5 -0.3,4.7 -1,6.6 -0.7,1.9 -1.6,3.5 -2.8,4.8 -1.2,1.3 -2.6,2.3 -4.2,3 -1.6,0.7 -3.3,1 -5.1,1 -2.4,0 -4.5,-0.6 -6.3,-1.8 -1.7,-1.2 -3.1,-2.8 -4,-4.8 V 262 h -6.4 v -41.1 h 6.4 v 6.5 c 1,-2.3 2.5,-4 4.4,-5.1 1.9,-1.1 4,-1.7 6.4,-1.7 1.7,0 3.3,0.3 4.8,0.9 1.5,0.6 2.9,1.5 4,2.7 1.1,1.2 2.1,2.8 2.7,4.7 0.8,1.8 1.1,4.1 1.1,6.6 z m -15,10.1 c 2.8,0 4.9,-0.9 6.4,-2.7 1.4,-1.8 2.1,-4.2 2.1,-7.2 0,-3.1 -0.7,-5.6 -2.2,-7.3 -1.5,-1.8 -3.6,-2.7 -6.4,-2.7 -1.4,0 -2.7,0.3 -3.8,0.8 -1.1,0.5 -2,1.2 -2.7,2.1 -0.7,0.9 -1.2,2 -1.6,3.2 -0.4,1.2 -0.5,2.6 -0.5,4 0,2.9 0.7,5.2 2.1,7.1 1.3,1.8 3.5,2.7 6.6,2.7 z" id="path230"></path>
		<path d="m 914.1,235.5 c 0,2.5 -0.3,4.7 -1,6.6 -0.7,1.9 -1.6,3.5 -2.8,4.8 -1.2,1.3 -2.6,2.3 -4.2,3 -1.6,0.7 -3.3,1 -5.1,1 -2.4,0 -4.5,-0.6 -6.3,-1.8 -1.7,-1.2 -3.1,-2.8 -4,-4.8 V 262 h -6.4 v -41.1 h 6.4 v 6.5 c 1,-2.3 2.5,-4 4.4,-5.1 1.9,-1.1 4,-1.7 6.4,-1.7 1.7,0 3.3,0.3 4.8,0.9 1.5,0.6 2.9,1.5 4,2.7 1.1,1.2 2.1,2.8 2.7,4.7 0.8,1.8 1.1,4.1 1.1,6.6 z m -15,10.1 c 2.8,0 4.9,-0.9 6.4,-2.7 1.4,-1.8 2.1,-4.2 2.1,-7.2 0,-3.1 -0.7,-5.6 -2.2,-7.3 -1.5,-1.8 -3.6,-2.7 -6.4,-2.7 -1.4,0 -2.7,0.3 -3.8,0.8 -1.1,0.5 -2,1.2 -2.7,2.1 -0.7,0.9 -1.2,2 -1.6,3.2 -0.4,1.2 -0.5,2.6 -0.5,4 0,2.9 0.7,5.2 2.1,7.1 1.3,1.8 3.5,2.7 6.6,2.7 z" id="path232"></path>
	</g>
</g>
</svg>
