<?xml version="1.0" encoding="UTF-8" standalone="no"?>
<svg
   width="1333.2157"
   height="500"
   viewBox="0 0 1333.2157 500"
   fill="none"
   version="1.1"
   id="svg27"
   sodipodi:docname="Cerbos_horizontal_yellow.svg"
   inkscape:version="1.1.1 (3bf5ae0d25, 2021-09-20)"
   xmlns:inkscape="http://www.inkscape.org/namespaces/inkscape"
   xmlns:sodipodi="http://sodipodi.sourceforge.net/DTD/sodipodi-0.dtd"
   xmlns="http://www.w3.org/2000/svg"
   xmlns:svg="http://www.w3.org/2000/svg">
  <sodipodi:namedview
     id="namedview29"
     pagecolor="#ffffff"
     bordercolor="#666666"
     borderopacity="1.0"
     inkscape:pageshadow="2"
     inkscape:pageopacity="0.0"
     inkscape:pagecheckerboard="0"
     showgrid="false"
     fit-margin-top="0"
     fit-margin-left="0"
     fit-margin-right="0"
     fit-margin-bottom="0"
     inkscape:zoom="0.84982498"
     inkscape:cx="666.60785"
     inkscape:cy="250.05149"
     inkscape:window-width="1920"
     inkscape:window-height="1001"
     inkscape:window-x="-7"
     inkscape:window-y="-7"
     inkscape:window-maximized="1"
     inkscape:current-layer="svg27" />
  <g
     id="g41"
     transform="matrix(1.7850228,0,0,1.7850228,0,-0.03486176)"
     style="stroke-width:0.560217">
    <g
       clip-path="url(#clip0_667_8675)"
       id="g20"
       style="stroke-width:0.560217">
      <g
         style="mix-blend-mode:multiply;stroke-width:0.560217"
         id="g4">
        <path
           d="m 102.26,280.128 c 56.477,0 102.26,-7.526 102.26,-16.81 0,-9.284 -45.783,-16.81 -102.26,-16.81 -56.4766,0 -102.26,7.526 -102.26,16.81 0,9.284 45.7834,16.81 102.26,16.81 z"
           fill="#e6e6e6"
           id="path2"
           style="stroke-width:0.313843" />
      </g>
      <path
         d="m 203.897,194.049 c -1.51,-4.52 -5.4,-8.27 -7.8,-12.17 -4.48,-7.3 -2.81,-15.92 -1.11,-23.77 2,-9.22 2,-13.79 2.8,-23.19 1.493,-17.869 0.787,-35.8535 -2.1,-53.5505 -2.84,-17.37 -8.44,-34.11 -11.69,-51.37 -1.91,-10 -5.42,-18.67 -9.35,-27.99999 -1.17,-2.799995 -2,-2.369995 -3.47,-0.32 -6.192,9.16619 -11.665,18.79829 -16.37,28.80999 -1.26,2.6 -13.66,29.39 -12.34,29.78 -7.07,-2.06 -17.45,-5.5 -38.46,-5.5 -19.5599,0 -29.2999,2.83 -36.4999,5.5 0.05,0 -3,-7.33 -3.26,-7.82 -7.02,-14.11 -14.13,-28.19 -22.25,-41.6 -1,-1.65998 -4.65,-10.479985 -7.19,-9.06999 -4.7,2.61 -6.49,13.46999 -7.8,18.28999 -5.51,20.13 -11,41.26 -13.65,62 -3.35999,26.4005 -4.83999,52.9305 -1.79,79.4205 0.47,4.08 1.2,8.89 0.16,12.88 -1.63,6.26 -7.58999,10.34 -9.75999,16.4 -2.110001,5.86 1.76,10.63 7.35,11 1.40999,0.09 13.48999,-3.17 13.06999,-5.19 0.6,2.91 1,5.08 1.51,7.22 3.23,13.59 16.11,54.549 27.42,60.999 7.29,4.18 13.28,-0.069 13.36,-8.869 0,-1.43 -0.15,-2.87 -0.25,-4.7 12.6784,4.66 26.0628,7.109 39.5699,7.24 14.144,-0.085 28.176,-2.521 41.52,-7.21 -0.1,1.83 -0.27,3.27 -0.25,4.7 0.08,8.8 6.07,12.999 13.36,8.869 6.75,-3.88 10.32,-13.479 13,-20.589 3.92,-10.38 8,-26.05 10.59,-36.89 0.51,-2.14 0.9,-4.31 1.51,-7.22 -0.24,1.15 10.11,4.86 11.32,5 4.11,0.57 8.58,-0.72 9.34,-5.66 0.278,-1.82 0.11,-3.68 -0.49,-5.42 z M 73.5271,117.119 c 2.2925,-0.038 4.5444,0.607 6.4688,1.854 1.9245,1.246 3.4344,3.037 4.3375,5.145 0.9031,2.107 1.1585,4.436 0.7338,6.689 -0.4248,2.253 -1.5106,4.329 -3.1191,5.963 -1.6085,1.634 -3.6669,2.752 -5.913,3.212 -2.2462,0.46 -4.5785,0.241 -6.6999,-0.629 -2.1214,-0.869 -3.9359,-2.351 -5.2125,-4.256 -1.2765,-1.904 -1.9573,-4.146 -1.9556,-6.438 -0.0119,-1.504 0.2726,-2.995 0.8371,-4.389 0.5644,-1.394 1.3979,-2.663 2.4528,-3.734 1.0549,-1.072 2.3105,-1.925 3.6952,-2.512 1.3847,-0.586 2.8713,-0.894 4.3749,-0.905 z m -27.35,60.32 -3.66,-1.44 c 0,0 1.4,-4.89 1.9,-6.72 l 5.17,-15.82 9.24,27 c -4.2835,-0.703 -8.511,-1.712 -12.65,-3.02 z m 15.13,3.38 c 3.91,-7.63 11.47,-18.82 15,-25 l 2.55,6.93 c 2.21,6.53 5.07,13.93 6.94,20.69 -8.99,-0.56 -17.25,-1.44 -24.49,-2.62 z m 45.2899,3.24 c -6,0 -11.9099,-0.15 -17.5399,-0.44 l 16.3499,-27.7 c 4.42,9.27 8.7,18.61 13,28 -3.86,0.08 -7.8,0.14 -11.81,0.14 z m 15.46,-0.34 c 4.59,-9.73 8.1,-19.57 12.34,-27.8 4.29,9.9 6.57,15.83 11.14,25.82 -7.14,0.93 -15.05,1.61 -23.48,1.98 z m 15.54,-43.51 c -2.29,0.029 -4.538,-0.623 -6.457,-1.874 -1.919,-1.251 -3.423,-3.044 -4.32,-5.152 -0.897,-2.107 -1.148,-4.434 -0.719,-6.684 0.429,-2.251 1.517,-4.323 3.126,-5.953 1.609,-1.63 3.667,-2.745 5.911,-3.203 2.245,-0.458 4.575,-0.239 6.694,0.631 2.119,0.87 3.932,2.35 5.208,4.252 1.276,1.903 1.957,4.142 1.957,6.433 0.012,1.507 -0.274,3.002 -0.841,4.399 -0.566,1.397 -1.403,2.668 -2.462,3.741 -1.059,1.073 -2.32,1.926 -3.709,2.511 -1.389,0.585 -2.88,0.891 -4.388,0.899 z m 31.24,36.79 c -6.401,1.896 -12.936,3.303 -19.55,4.21 l 16.09,-27.77 3.77,23.05 c -0.081,0.182 -0.185,0.354 -0.31,0.51 z"
         fill="#000000"
         id="path6"
         style="stroke-width:0.313843" />
      <path
         d="m 334.741,131.349 c 2.69,3.25 6.55,4.9 11.48,4.9 3.282,0.072 6.505,-0.882 9.22,-2.73 1.448,-0.955 2.636,-2.255 3.459,-3.783 0.822,-1.528 1.252,-3.236 1.252,-4.972 0,-1.735 -0.43,-3.443 -1.252,-4.971 -0.823,-1.528 -2.011,-2.828 -3.459,-3.784 -2.712,-1.853 -5.936,-2.811 -9.22,-2.74 h -43.88 c -3.32,-0.072 -6.582,0.881 -9.34,2.73 -1.471,0.941 -2.676,2.243 -3.5,3.782 -0.825,1.539 -1.241,3.263 -1.21,5.008 v 53.5 c -0.022,1.741 0.407,3.458 1.245,4.984 0.837,1.526 2.055,2.81 3.535,3.726 2.704,1.886 5.933,2.872 9.23,2.82 h 43.88 c 3.291,0.052 6.516,-0.931 9.22,-2.81 1.465,-0.929 2.667,-2.219 3.491,-3.746 0.825,-1.526 1.244,-3.239 1.219,-4.974 0.017,-1.736 -0.402,-3.45 -1.22,-4.982 -0.818,-1.533 -2.008,-2.835 -3.46,-3.788 -2.69,-1.94 -5.934,-2.96 -9.25,-2.91 -4.94,0 -8.8,1.67 -11.49,5 h -18.41 v -40.26 z"
         fill="#ffba00"
         id="path8"
         style="stroke-width:0.313843" />
      <path
         d="m 424.721,158.068 c 3.253,0.063 6.441,-0.915 9.1,-2.79 1.487,-0.88 2.717,-2.136 3.565,-3.642 0.848,-1.507 1.284,-3.21 1.265,-4.938 v -21.82 c 0.015,-1.748 -0.415,-3.471 -1.25,-5.007 -0.834,-1.536 -2.046,-2.835 -3.52,-3.773 -2.674,-1.896 -5.883,-2.887 -9.16,-2.83 h -44 c -3.334,-0.022 -6.596,0.972 -9.35,2.85 -1.411,0.979 -2.56,2.29 -3.345,3.818 -0.784,1.528 -1.181,3.225 -1.155,4.942 v 53.35 c -0.045,1.745 0.364,3.472 1.188,5.012 0.824,1.539 2.034,2.838 3.512,3.768 2.677,1.879 5.879,2.866 9.15,2.82 h 44 c 3.265,0.063 6.465,-0.922 9.13,-2.81 1.502,-0.914 2.737,-2.208 3.579,-3.751 0.843,-1.543 1.264,-3.281 1.221,-5.039 0.008,-1.736 -0.426,-3.445 -1.26,-4.967 -0.835,-1.522 -2.043,-2.807 -3.51,-3.733 -2.672,-1.899 -5.883,-2.891 -9.16,-2.83 -4.94,0 -8.78,1.67 -11.42,5 h -18.45 v -13.6 z m -29.87,-26.8 h 15.85 v 8.8 h -15.85 z"
         fill="#ffba00"
         id="path10"
         style="stroke-width:0.313843" />
      <path
         d="m 502.922,115.999 c -2.745,-1.839 -5.987,-2.792 -9.29,-2.73 h -32.47 c -3.308,-0.063 -6.555,0.894 -9.3,2.74 -1.472,0.94 -2.678,2.241 -3.504,3.78 -0.826,1.539 -1.245,3.263 -1.216,5.01 v 53.5 c -0.021,1.741 0.409,3.459 1.248,4.985 0.839,1.527 2.06,2.81 3.542,3.725 2.726,1.835 5.938,2.815 9.225,2.815 3.287,0 6.499,-0.98 9.225,-2.815 1.463,-0.932 2.664,-2.223 3.488,-3.749 0.824,-1.526 1.245,-3.237 1.222,-4.971 v -47 h 7.15 c 2.73,3.25 6.56,4.9 11.39,4.9 3.278,0.071 6.497,-0.88 9.21,-2.72 1.485,-0.918 2.708,-2.204 3.549,-3.734 0.841,-1.53 1.272,-3.251 1.251,-4.996 0.02,-1.738 -0.404,-3.452 -1.229,-4.981 -0.826,-1.529 -2.027,-2.823 -3.491,-3.759 z"
         fill="#ffba00"
         id="path12"
         style="stroke-width:0.313843" />
      <path
         d="m 580.8,115.999 c -2.715,-1.854 -5.942,-2.812 -9.23,-2.74 h -29.94 v -12.84 c 0.018,-1.7395 -0.403,-3.4553 -1.222,-4.9896 -0.82,-1.5343 -2.012,-2.8378 -3.468,-3.7905 -2.7,-1.9092 -5.943,-2.9011 -9.25,-2.83 -3.327,-0.0771 -6.593,0.9109 -9.32,2.82 -1.456,0.9543 -2.648,2.2595 -3.468,3.7955 -0.82,1.536 -1.24,3.2536 -1.222,4.9946 v 77.88 c -0.021,1.741 0.408,3.457 1.245,4.983 0.838,1.526 2.056,2.81 3.535,3.727 2.705,1.885 5.934,2.872 9.23,2.82 h 43.88 c 3.292,0.053 6.518,-0.93 9.22,-2.81 1.467,-0.929 2.67,-2.219 3.496,-3.745 0.827,-1.527 1.248,-3.239 1.224,-4.975 v -53.5 c 0.031,-1.747 -0.385,-3.473 -1.21,-5.013 -0.824,-1.54 -2.029,-2.844 -3.5,-3.787 z m -23.24,55.58 h -15.93 v -40.23 h 15.93 z"
         fill="#ffba00"
         id="path14"
         style="stroke-width:0.313843" />
      <path
         d="m 661.487,115.998 c -2.712,-1.854 -5.936,-2.812 -9.22,-2.74 h -43.88 c -3.308,-0.063 -6.555,0.894 -9.3,2.74 -1.471,0.941 -2.676,2.242 -3.5,3.781 -0.825,1.539 -1.241,3.263 -1.21,5.009 v 53.5 c -0.024,1.741 0.404,3.458 1.242,4.984 0.838,1.527 2.056,2.81 3.538,3.726 2.704,1.886 5.933,2.873 9.23,2.82 h 43.88 c 3.291,0.052 6.516,-0.931 9.22,-2.81 1.463,-0.932 2.663,-2.222 3.487,-3.748 0.825,-1.527 1.245,-3.238 1.223,-4.972 v -53.49 c 0.03,-1.747 -0.386,-3.473 -1.211,-5.013 -0.824,-1.54 -2.029,-2.844 -3.499,-3.787 z m -23.24,55.58 h -15.93 v -40.23 h 15.93 z"
         fill="#ffba00"
         id="path16"
         style="stroke-width:0.313843" />
      <path
         d="m 742.212,145.23 c -2.686,-1.949 -5.932,-2.973 -9.25,-2.92 h -29.96 v -11 h 18 c 2.87,4.9 6.89,7.38 12,7.38 3.642,-0.161 7.092,-1.68 9.671,-4.259 2.578,-2.578 4.097,-6.028 4.259,-9.671 0.031,-1.744 -0.385,-3.467 -1.207,-5.006 -0.823,-1.538 -2.025,-2.841 -3.493,-3.784 -2.716,-1.853 -5.943,-2.812 -9.23,-2.74 h -43.92 c -3.308,-0.061 -6.554,0.895 -9.3,2.74 -1.469,0.943 -2.673,2.245 -3.498,3.783 -0.824,1.539 -1.241,3.262 -1.212,5.007 v 24.31 c -0.02,1.742 0.411,3.459 1.25,4.985 0.84,1.526 2.059,2.809 3.54,3.725 2.715,1.846 5.937,2.8 9.22,2.73 h 29.92 v 11 h -18.5 c -2.64,-3.3 -6.48,-5 -11.42,-5 -3.335,-0.062 -6.604,0.932 -9.34,2.84 -1.448,0.973 -2.633,2.29 -3.448,3.833 -0.815,1.542 -1.235,3.263 -1.222,5.007 -0.022,1.741 0.407,3.458 1.245,4.984 0.837,1.526 2.055,2.81 3.535,3.726 2.704,1.885 5.933,2.872 9.23,2.82 h 43.92 c 3.292,0.054 6.517,-0.929 9.22,-2.81 1.465,-0.929 2.667,-2.219 3.491,-3.746 0.825,-1.526 1.244,-3.239 1.219,-4.974 V 154 c 0.016,-1.741 -0.408,-3.458 -1.234,-4.991 -0.825,-1.533 -2.024,-2.833 -3.486,-3.779 z"
         fill="#ffba00"
         id="path18"
         style="stroke-width:0.313843" />
    </g>
  </g>
  <defs
     id="defs25">
    <clipPath
       id="clip0_667_8675">
      <rect
         width="746.89001"
         height="280.13"
         fill="#ffffff"
         id="rect22"
         x="0"
         y="0" />
    </clipPath>
  </defs>
</svg>
