<?xml version="1.0" encoding="UTF-8" standalone="no"?>
<svg
   width="500"
   height="105.46875"
   viewBox="0 0 500 105.46875"
   version="1.1"
   id="svg8"
   sodipodi:docname="Teleport-logo.svg"
   inkscape:version="1.1.1 (3bf5ae0d25, 2021-09-20)"
   xmlns:inkscape="http://www.inkscape.org/namespaces/inkscape"
   xmlns:sodipodi="http://sodipodi.sourceforge.net/DTD/sodipodi-0.dtd"
   xmlns="http://www.w3.org/2000/svg"
   xmlns:svg="http://www.w3.org/2000/svg"
   xmlns:rdf="http://www.w3.org/1999/02/22-rdf-syntax-ns#"
   xmlns:cc="http://creativecommons.org/ns#"
   xmlns:dc="http://purl.org/dc/elements/1.1/">
  <defs
     id="defs12" />
  <sodipodi:namedview
     id="namedview10"
     pagecolor="#ffffff"
     bordercolor="#666666"
     borderopacity="1.0"
     inkscape:pageshadow="2"
     inkscape:pageopacity="0.0"
     inkscape:pagecheckerboard="0"
     showgrid="false"
     fit-margin-top="0"
     fit-margin-left="0"
     fit-margin-right="0"
     fit-margin-bottom="0"
     inkscape:zoom="8.265625"
     inkscape:cx="63.939509"
     inkscape:cy="13.550095"
     inkscape:window-width="1920"
     inkscape:window-height="1010"
     inkscape:window-x="-6"
     inkscape:window-y="-6"
     inkscape:window-maximized="1"
     inkscape:current-layer="svg8" />
  <title
     id="title2">temporary_teleport_logo</title>
  <g
     id="Page-1"
     stroke="none"
     stroke-width="1"
     fill="none"
     fill-rule="evenodd"
     transform="scale(3.90625)">
    <g
       id="temporary_teleport_logo"
       fill="#512fc9"
       fill-rule="nonzero">
      <path
         d="m 15.599782,0.257459 c 0.198813,0.022717 0.368269,0.176845 0.434164,0.357062 l 0.02168,0.078526 0.65608,3.372206 c 0.867318,0.335706 1.684622,0.780737 2.422421,1.32833 l 0.311246,0.240942 3.310222,-1.133684 c 0.214433,-0.09231 0.441647,-0.025962 0.602117,0.158658 1.13891,1.277919 2.063386,2.82123 2.600179,4.442427 0.08201,0.18426 0.04116,0.398335 -0.09591,0.537871 l -0.06456,0.054933 -2.62716,2.239964 c 0.09372,0.500494 0.120707,1.041374 0.120707,1.56783 0,0.423473 -0.01727,0.853408 -0.07216,1.264695 l -0.04854,0.304578 2.62716,2.241406 c 0.187451,0.131253 0.254196,0.382222 0.16047,0.592804 -0.535373,1.621197 -1.459849,3.163065 -2.598759,4.440984 -0.138763,0.158246 -0.325519,0.229598 -0.511082,0.188624 l -0.09246,-0.02997 -3.310222,-1.133684 c -0.714481,0.576758 -1.511593,1.053025 -2.363748,1.418173 l -0.368499,0.149657 -0.6575,3.375091 C 16.015868,26.52691 15.826996,26.72307 15.599782,26.750474 14.74205,26.90769 13.884318,27 13.001024,27 12.11631,27 11.258577,26.90769 10.400845,26.750474 10.202033,26.726495 10.032576,26.573313 9.9666811,26.393353 L 9.9449971,26.314886 9.288917,22.939795 C 8.4215991,22.606613 7.583637,22.160793 6.8587493,21.612964 L 6.5552501,21.371965 3.245028,22.505649 c -0.2144331,0.09231 -0.441647,0.02596 -0.6035369,-0.158658 -1.1389095,-1.277919 -2.063386,-2.819787 -2.5987587,-4.440984 -0.08201,-0.18426 -0.0411603,-0.39944 0.0959114,-0.538285 l 0.0645584,-0.05452 2.6257404,-2.241406 c -0.093726,-0.500494 -0.1207074,-1.039932 -0.1207074,-1.569273 0,-0.421165 0.017268,-0.851561 0.072163,-1.263126 L 2.8289426,11.934694 0.2032022,9.69473 C 0.0157508,9.562034 -0.0524134,9.312508 0.0427324,9.101926 0.5781051,7.480729 1.5025816,5.937418 2.6414911,4.659499 2.7802539,4.501253 2.9670098,4.430961 3.1525733,4.47133 L 3.245028,4.500841 6.5552501,5.634525 C 7.2461223,5.057767 8.0609414,4.582604 8.918843,4.215801 L 9.288917,4.065253 9.9449971,0.693047 c 0.039762,-0.212025 0.2286339,-0.409626 0.4558479,-0.435588 1.715465,-0.343279 3.483473,-0.343279 5.198937,0 z m 73.436953,9.043746 c 0.661224,0 1.273469,0.144578 1.836734,0.433735 0.563266,0.289156 1.04898,0.706827 1.457143,1.253012 0.408164,0.546185 0.728572,1.214859 0.961225,2.006024 0.232653,0.791165 0.348979,1.688755 0.348979,2.692771 0,0.939759 -0.132653,1.807229 -0.397959,2.60241 -0.265306,0.79518 -0.636735,1.485943 -1.114286,2.072289 -0.477551,0.586345 -1.048979,1.044176 -1.714285,1.373494 -0.665306,0.329317 -1.402041,0.493976 -2.210204,0.493976 -0.661225,0 -1.216327,-0.09237 -1.665306,-0.277109 -0.44898,-0.184739 -0.857143,-0.433735 -1.22449,-0.746988 v 0 V 26 H 81.518367 V 9.542169 h 2.351021 l 0.137388,0.00627 c 0.176979,0.016707 0.329142,0.066827 0.456489,0.150361 0.159184,0.104418 0.271429,0.261044 0.336735,0.46988 v 0 l 0.281633,0.915662 0.25102,-0.257028 c 0.171429,-0.165997 0.35102,-0.321285 0.538776,-0.465863 C 86.153061,10.144583 86.455102,9.957836 86.777551,9.80121 87.1,9.644578 87.446939,9.522088 87.818367,9.433735 88.189796,9.345382 88.595918,9.301205 89.036735,9.301205 Z M 53.330612,9.349398 c 0.840817,0 1.610204,0.128514 2.308164,0.385542 0.697959,0.257028 1.297959,0.630522 1.799999,1.120482 0.502041,0.48996 0.893878,1.090361 1.175511,1.801205 0.281632,0.710843 0.422449,1.516064 0.422449,2.415662 0,0.281125 -0.01225,0.51004 -0.03674,0.686747 -0.02449,0.176707 -0.06939,0.317269 -0.134694,0.421687 -0.06531,0.104418 -0.153061,0.176707 -0.263265,0.216867 -0.110204,0.04016 -0.251021,0.06024 -0.422449,0.06024 v 0 h -7.322449 l 0.03478,0.255062 c 0.1428,0.913292 0.453656,1.5853 0.932568,2.016023 0.522449,0.469879 1.195918,0.704819 2.020408,0.704819 0.440816,0 0.820408,-0.05221 1.138776,-0.156627 0.318367,-0.104417 0.60204,-0.220883 0.85102,-0.349397 0.24898,-0.128514 0.477551,-0.24498 0.685714,-0.349398 0.208163,-0.104417 0.426531,-0.156626 0.655102,-0.156626 0.302041,0 0.530612,0.108433 0.685714,0.325301 v 0 l 1.102041,1.337349 -0.238775,0.255181 c -0.323266,0.327068 -0.666123,0.601446 -1.028572,0.823133 -0.453061,0.277108 -0.918367,0.493976 -1.395918,0.650602 -0.477551,0.156627 -0.955102,0.26506 -1.432653,0.325301 -0.477551,0.06024 -0.932653,0.09036 -1.365306,0.09036 -0.889796,0 -1.72449,-0.142571 -2.504082,-0.427711 -0.779592,-0.285141 -1.461224,-0.708836 -2.044898,-1.271085 -0.583673,-0.562249 -1.044898,-1.261044 -1.383673,-2.096385 -0.338776,-0.835341 -0.508163,-1.807229 -0.508163,-2.915663 0,-0.835341 0.144897,-1.626506 0.434693,-2.373494 0.289796,-0.746988 0.706123,-1.401606 1.24898,-1.963855 0.542857,-0.562249 1.2,-1.008032 1.971428,-1.33735 0.771429,-0.329317 1.642858,-0.493975 2.614286,-0.493975 z m 20.302041,0 c 0.840816,0 1.610204,0.128514 2.308163,0.385542 0.69796,0.257028 1.29796,0.630522 1.8,1.120482 0.502041,0.48996 0.893878,1.090361 1.175511,1.801205 0.281632,0.710843 0.422449,1.516064 0.422449,2.415662 0,0.281125 -0.01224,0.51004 -0.03673,0.686747 -0.02449,0.176707 -0.06939,0.317269 -0.134694,0.421687 -0.06531,0.104418 -0.153061,0.176707 -0.263265,0.216867 -0.110204,0.04016 -0.251021,0.06024 -0.422449,0.06024 v 0 h -7.322449 l 0.03478,0.255062 c 0.1428,0.913292 0.453656,1.5853 0.932568,2.016023 0.522449,0.469879 1.195918,0.704819 2.020408,0.704819 0.440816,0 0.820408,-0.05221 1.138775,-0.156627 0.318368,-0.104417 0.602041,-0.220883 0.851021,-0.349397 0.248979,-0.128514 0.477551,-0.24498 0.685714,-0.349398 0.208163,-0.104417 0.426531,-0.156626 0.655102,-0.156626 0.302041,0 0.530612,0.108433 0.685714,0.325301 v 0 l 1.102041,1.337349 -0.238775,0.255181 c -0.323266,0.327068 -0.666123,0.601446 -1.028572,0.823133 -0.453061,0.277108 -0.918367,0.493976 -1.395918,0.650602 -0.477551,0.156627 -0.955102,0.26506 -1.432653,0.325301 -0.477551,0.06024 -0.932653,0.09036 -1.365306,0.09036 -0.889796,0 -1.72449,-0.142571 -2.504082,-0.427711 -0.779592,-0.285141 -1.461225,-0.708836 -2.044898,-1.271085 -0.583673,-0.562249 -1.044898,-1.261044 -1.383673,-2.096385 -0.338776,-0.835341 -0.508164,-1.807229 -0.508164,-2.915663 0,-0.835341 0.144898,-1.626506 0.434694,-2.373494 0.289796,-0.746988 0.706123,-1.401606 1.24898,-1.963855 0.542857,-0.562249 1.2,-1.008032 1.971428,-1.33735 0.771429,-0.329317 1.642858,-0.493975 2.614286,-0.493975 z m 27.697957,0 c 0.96327,0 1.84082,0.148594 2.63266,0.445783 0.79183,0.297188 1.47142,0.722891 2.03877,1.277108 0.56735,0.554217 1.00816,1.226908 1.32245,2.018072 0.31429,0.791165 0.47143,1.680723 0.47143,2.668675 0,0.995984 -0.15714,1.893574 -0.47143,2.692771 -0.31429,0.799197 -0.7551,1.477912 -1.32245,2.036145 -0.56735,0.558233 -1.24694,0.987952 -2.03877,1.289156 -0.79184,0.301205 -1.66939,0.451808 -2.63266,0.451808 -0.97143,0 -1.8551,-0.150603 -2.651018,-0.451808 -0.795919,-0.301204 -1.481633,-0.730923 -2.057143,-1.289156 -0.57551,-0.558233 -1.020408,-1.236948 -1.334694,-2.036145 -0.314286,-0.799197 -0.471428,-1.696787 -0.471428,-2.692771 0,-0.987952 0.157142,-1.87751 0.471428,-2.668675 0.314286,-0.791164 0.759184,-1.463855 1.334694,-2.018072 0.57551,-0.554217 1.261224,-0.97992 2.057143,-1.277108 0.795918,-0.297189 1.679588,-0.445783 2.651018,-0.445783 z m 23.19184,-3.433735 v 3.650602 h 3.08571 v 2.554217 h -3.08571 v 6.204819 l 0.009,0.16747 c 0.0229,0.215261 0.0914,0.398394 0.20571,0.549398 0.14286,0.188755 0.34898,0.283132 0.61837,0.283132 0.13878,0 0.2551,-0.01406 0.34898,-0.04217 0.0939,-0.02811 0.17551,-0.06024 0.2449,-0.09639 0.0694,-0.03615 0.13469,-0.06827 0.19592,-0.09639 0.0612,-0.02811 0.13265,-0.04217 0.21428,-0.04217 0.11429,0 0.20613,0.0261 0.27551,0.07831 0.0694,0.05221 0.14082,0.134538 0.21429,0.246988 v 0 L 128,21.144578 l -0.25,0.173193 c -0.42517,0.276105 -0.89286,0.489458 -1.40306,0.64006 -0.61225,0.180723 -1.2449,0.271085 -1.89796,0.271085 -0.60408,0 -1.13673,-0.08635 -1.59796,-0.259036 -0.46122,-0.172691 -0.84898,-0.417671 -1.16327,-0.73494 -0.31428,-0.317269 -0.55306,-0.700803 -0.71632,-1.150603 -0.16327,-0.449799 -0.2449,-0.951807 -0.2449,-1.506024 v 0 -6.457831 h -1.07755 l -0.11412,-0.0075 c -0.14759,-0.01992 -0.2769,-0.07968 -0.38792,-0.179277 -0.13878,-0.124498 -0.20816,-0.307229 -0.20816,-0.548193 v 0 -1.457831 l 2.0204,-0.385542 0.74694,-3.048193 0.0348,-0.10988 c 0.12049,-0.312289 0.38645,-0.468433 0.79788,-0.468433 v 0 z M 46.179592,4.481928 V 7.710843 H 41.159184 V 22.036145 H 37.020408 V 7.710843 H 32 V 4.481928 Z M 65.134694,4 V 22.036145 H 61.338775 V 4 Z m 51.771426,5.301205 c 0.57959,0 1.0449,0.136546 1.39592,0.409638 v 0 l -0.48979,2.746988 -0.0235,0.09518 c -0.0366,0.118876 -0.0941,0.205623 -0.17241,0.260241 -0.098,0.06827 -0.22857,0.10241 -0.39184,0.10241 -0.13878,0 -0.30204,-0.01807 -0.4898,-0.05422 -0.18775,-0.03615 -0.42449,-0.05422 -0.7102,-0.05422 -0.99592,0 -1.77959,0.522088 -2.35102,1.566265 v 0 7.662651 h -3.79592 V 9.542169 h 2.25306 l 0.13508,0.00301 c 0.12934,0.00602 0.24145,0.021084 0.33635,0.04518 0.12653,0.032129 0.23265,0.08233 0.31837,0.150603 0.0857,0.068273 0.15102,0.158634 0.19592,0.271084 0.0449,0.11245 0.0837,0.248996 0.11632,0.409639 v 0 l 0.20817,1.168674 0.17717,-0.258094 c 0.41964,-0.585969 0.88303,-1.058171 1.39017,-1.416604 0.5796,-0.409639 1.21225,-0.614458 1.89796,-0.614458 z M 12.99929,5.6 C 8.6357239,5.6 5.1,9.137462 5.1,13.5 c 0,4.362538 3.5357239,7.9 7.89929,7.9 4.363566,0 7.90071,-3.537462 7.90071,-7.9 0,-4.362538 -3.537144,-7.9 -7.90071,-7.9 z m 74.714996,6.556627 c -0.277551,0 -0.528572,0.0261 -0.753062,0.07831 -0.224489,0.05221 -0.432653,0.126506 -0.624489,0.222891 -0.191837,0.09639 -0.369388,0.218876 -0.532653,0.36747 -0.163266,0.148595 -0.326531,0.319277 -0.489796,0.512048 v 0 5.301205 l 0.144898,0.148762 c 0.244898,0.234828 0.506802,0.404116 0.785714,0.507865 0.334694,0.124498 0.685714,0.186747 1.053061,0.186747 0.351021,0 0.67347,-0.06827 0.967347,-0.20482 0.293878,-0.136546 0.54898,-0.355421 0.765306,-0.656626 0.216327,-0.301205 0.385715,-0.692771 0.508164,-1.174699 0.122448,-0.481928 0.183673,-1.068273 0.183673,-1.759036 0,-0.658635 -0.04898,-1.212851 -0.146939,-1.662651 -0.09796,-0.449799 -0.234694,-0.813253 -0.410204,-1.090361 -0.17551,-0.277108 -0.385714,-0.475904 -0.630612,-0.596386 -0.244898,-0.120482 -0.518367,-0.180722 -0.820408,-0.180722 z m 13.616324,-0.03614 c -0.89796,0 -1.5551,0.301205 -1.971426,0.903614 -0.416327,0.60241 -0.62449,1.522089 -0.62449,2.759037 0,1.236947 0.208163,2.158634 0.62449,2.76506 0.416326,0.606425 1.073466,0.909638 1.971426,0.909638 0.87347,0 1.51633,-0.303213 1.92857,-0.909638 0.41225,-0.606426 0.61837,-1.528113 0.61837,-2.76506 0,-1.236948 -0.20612,-2.156627 -0.61837,-2.759037 -0.41224,-0.602409 -1.0551,-0.903614 -1.92857,-0.903614 z M 18,10.05 v 2.352941 L 14.19,12.402 14.190476,18.05 H 11.809524 L 11.809,12.402 8,12.402941 V 10.05 Z m 35.404082,1.877711 c -0.726531,0 -1.293878,0.202811 -1.702041,0.608434 -0.408163,0.405622 -0.677551,0.989959 -0.808163,1.753012 v 0 h 4.738775 c 0,-0.297189 -0.03878,-0.586346 -0.116327,-0.86747 -0.07755,-0.281125 -0.204081,-0.532129 -0.379591,-0.753012 -0.175511,-0.220884 -0.406123,-0.399599 -0.691837,-0.536145 -0.285714,-0.136546 -0.632653,-0.204819 -1.040816,-0.204819 z m 20.30204,0 c -0.72653,0 -1.293877,0.202811 -1.70204,0.608434 -0.408164,0.405622 -0.677551,0.989959 -0.808164,1.753012 v 0 h 4.738776 c 0,-0.297189 -0.03878,-0.586346 -0.116327,-0.86747 -0.07755,-0.281125 -0.204081,-0.532129 -0.379591,-0.753012 -0.175511,-0.220884 -0.406123,-0.399599 -0.691837,-0.536145 -0.285715,-0.136546 -0.632653,-0.204819 -1.040817,-0.204819 z"
         id="path4" />
    </g>
  </g>
  <metadata
     id="metadata829">
    <rdf:RDF>
      <cc:Work
         rdf:about="">
        <dc:title>temporary_teleport_logo</dc:title>
      </cc:Work>
    </rdf:RDF>
  </metadata>
</svg>
