<svg width="218" height="218" viewBox="0 0 218 218" fill="none" xmlns="http://www.w3.org/2000/svg">
<path d="M48.5094 0L0 48.5094V218H169.491L218 169.491V0H48.5094Z" fill="#061640"/>
<path d="M148.71 134.919L128.108 134.918V140.91V171.681C128.104 174.353 127.041 176.916 125.151 178.805C123.261 180.695 120.699 181.759 118.026 181.763C115.353 181.759 112.791 180.695 110.901 178.805C109.011 176.916 107.948 174.353 107.944 171.681V134.919H87.3423V140.91V174.603C87.3423 189.463 98.3008 200.275 111.743 200.275H112.912C120.948 200.275 124.601 198.113 128.984 194.606V198.989H148.71V192.999V134.919Z" fill="white"/>
<path d="M93.3686 30.3924L87.3779 36.5292V50.9943H101.843L107.834 45.0037V30.5385H93.3686V30.3924Z" fill="white"/>
<path d="M107.798 60.4904H87.3423V123.319H107.798V60.4904Z" fill="white"/>
<path d="M62.3901 78.0236C62.3901 78.0236 60.929 76.7086 58.7373 75.5397C56.3995 74.3708 53.9156 73.9325 51.5778 73.9325C49.8244 73.9325 47.7788 74.2247 46.1716 75.1014C45.5871 75.3936 44.8566 75.978 44.4182 76.7086C43.9799 77.4392 43.8338 78.1697 43.8338 79.0464C43.8338 79.9231 43.9799 80.6537 44.4182 81.3842C44.8566 82.1148 45.5871 82.5531 46.3177 82.8453C49.0938 84.0142 52.0161 84.8909 55.2306 85.4754C57.7145 85.9137 60.0523 86.7904 62.3901 87.6671C64.7279 88.5437 66.9196 89.8587 68.9652 91.3199C70.8646 92.781 72.4719 94.8266 73.4946 96.8722C74.8097 99.3561 75.248 101.986 75.248 104.762C75.3941 108.123 74.6635 111.337 73.0563 114.26C71.4491 117.182 69.2574 119.666 66.4812 121.565C63.8512 123.319 60.929 124.487 57.7145 125.218C54.6461 126.095 51.2855 126.387 48.0711 126.387C42.9571 126.387 37.8432 125.51 33.0215 123.903C28.492 122.442 22.6475 117.62 22.6475 117.62L34.1904 105.931C36.0898 108.123 36.6743 108.123 39.3043 109.438C41.9343 110.753 44.8566 111.483 47.7788 111.483C49.5322 111.483 51.2855 111.045 52.7467 110.315C53.3311 110.022 54.2078 109.292 54.6461 108.561C55.0845 107.684 55.0845 106.808 55.0845 106.077C55.0845 105.054 54.7922 104.324 54.2078 103.447C53.7694 102.717 52.8928 102.132 52.0161 101.84C48.9477 100.525 45.7333 99.5022 42.5188 98.9177C40.181 98.4794 38.1354 97.7488 35.9437 96.8722C33.752 95.9955 31.8526 94.8266 30.0992 93.3655C28.3459 91.9043 26.8847 90.0049 25.8619 88.1054C24.693 85.7676 24.2547 83.1376 24.2547 80.5075C24.1086 77.0008 24.8391 73.7864 26.7386 70.718C28.3459 68.088 30.3914 65.8963 33.0215 64.1429C35.6515 62.5357 38.4276 61.2207 41.3499 60.344C44.2721 59.4673 47.4866 59.1751 50.555 59.1751C55.3767 59.1751 59.9062 60.0518 64.2896 61.5129C68.5268 62.8279 73.3485 66.6268 73.3485 66.6268L62.3901 78.0236Z" fill="white"/>
<path d="M62.3901 151.371C62.3901 151.371 60.929 150.056 58.7373 148.887C56.3995 147.718 53.9156 147.28 51.5778 147.28C49.8244 147.28 47.7788 147.572 46.1716 148.449C45.5871 148.741 44.8566 149.326 44.4182 150.056C43.9799 150.787 43.8338 151.517 43.8338 152.394C43.8338 153.271 43.9799 154.001 44.4182 154.732C44.8566 155.462 45.5871 155.901 46.3177 156.193C49.0938 157.362 52.0161 158.239 55.2306 158.823C57.7145 159.261 60.0523 160.138 62.3901 161.015C64.7279 161.891 66.9196 163.206 68.9652 164.667C70.8646 166.129 72.4719 168.174 73.4946 170.22C74.8097 172.704 75.248 175.334 75.248 178.11C75.3941 181.47 74.6635 184.685 73.0563 187.607C71.5952 190.529 69.2574 193.013 66.4812 194.913C63.8512 196.666 60.929 197.835 57.7145 198.566C54.6461 199.442 51.2855 199.734 48.0711 199.734C42.9571 199.734 37.8432 198.858 33.0215 197.251C28.492 195.789 22.6475 190.968 22.6475 190.968L34.1904 179.279C36.0898 181.47 36.6743 181.47 39.3043 182.785C41.9343 184.1 44.8566 184.831 47.7788 184.831C49.5322 184.831 51.2855 184.393 52.7467 183.662C53.3311 183.37 54.2078 182.639 54.6461 181.909C55.0845 181.032 55.0845 180.155 55.0845 179.425C55.0845 178.402 54.7922 177.671 54.2078 176.795C53.7694 176.064 52.8928 175.48 52.0161 175.188C48.9477 173.873 45.7333 172.85 42.5188 172.265C40.181 171.827 38.1354 171.096 35.9437 170.22C33.752 169.343 31.8526 168.174 30.0992 166.713C28.3459 165.252 26.8847 163.352 25.8619 161.453C24.693 159.115 24.2547 156.485 24.2547 153.855C24.1086 150.348 24.8391 147.134 26.7386 144.066C28.3459 141.436 30.3914 139.244 33.0215 137.491C35.6515 135.883 38.4276 134.568 41.3499 133.692C44.2721 132.815 47.4866 132.523 50.555 132.523C55.3767 132.523 59.9062 133.399 64.2896 134.861C68.5268 136.176 73.3485 139.974 73.3485 139.974L62.3901 151.371Z" fill="white"/>
</svg>
